<svg width="367px" height="459px" xmlns="http://www.w3.org/2000/svg" xmlns:xlink="http://www.w3.org/1999/xlink">
<g style="">  <path d="M186.499833,388.374995 L185.499842,388.710937 L184.499834,388.863287 L183.499843,388.863287 L182.499851,388.863287 L181.499843,388.863287 L180.499843,388.863287 L179.499852,388.699207 L178.499852,388.488276 L177.499853,387.863288 L176.499853,387.863288 L175.499853,387.808587 L175.054540,387.363288 L174.499853,386.863289 L173.499862,386.863289 L172.499862,386.554686 L172.308449,386.363289 L171.499863,385.863268 L170.593616,385.363268 L169.499863,384.863269 L168.999867,384.363269 L168.499863,383.863270 L167.648307,383.363270 L167.499864,383.214844 L166.499872,382.621098 L166.242056,382.363271 L165.499873,381.839835 L165.023311,381.363272 L164.499873,380.847663 L164.015497,380.363273 L163.499873,379.515624 L163.347531,379.363274 L162.999877,378.363275 L162.499873,377.863275 L161.999878,377.363276 L161.999878,376.363277 L161.499874,375.863277 L160.999878,375.363278 L160.999878,374.363279 L160.499874,373.652348 L160.210818,373.363280 L159.999878,372.363281 L159.999878,371.363281 L159.999878,370.363282 L159.515502,369.363283 L159.136601,368.363284 L159.023321,367.363285 L158.999878,366.363286 L158.999878,365.363287 L158.999878,364.363288 L158.999878,363.363289 L158.999878,362.363268 L158.999878,361.363269 L158.999878,360.363270 L158.999878,359.363271 L158.999878,358.363272 L159.062383,357.363273 L159.160035,356.363274 L159.374882,355.363275 L159.999878,354.363276 L159.999878,353.363276 L159.999878,352.363277 L159.999878,351.363278 L159.999878,350.363279 L160.242066,349.363280 L160.499874,348.656252 L160.648317,348.363281 L160.999878,347.363282 L160.999878,346.363283 L160.999878,345.363284 L161.468625,344.363285 L161.999878,343.363286 L161.999878,342.363287 L161.999878,341.363288 L162.367067,340.363289 L162.999877,339.363268 L162.999877,338.363269 L163.171746,337.363270 L163.499873,337.035155 L163.999869,336.363271 L163.999869,335.363271 L164.038931,334.363272 L164.499873,333.816399 L164.913930,333.363273 L164.999868,332.363274 L164.999868,331.363275 L165.499873,330.484363 L165.999868,329.363277 L165.999868,328.363278 L166.499872,327.499997 L166.999868,326.363280 L166.999868,325.363281 L167.499864,324.527339 L167.663927,324.363282 L167.999868,323.363283 L167.999868,322.363284 L168.499863,321.484371 L168.999867,320.363286 L168.999867,319.363287 L169.499863,318.367190 L169.999867,317.363289 L169.999867,316.363267 L170.402203,315.363268 L170.999858,314.363269 L170.999858,313.363270 L171.187364,312.363271 L171.499863,312.050788 L171.999858,311.363272 L171.999858,310.363273 L171.999858,309.363274 L172.499862,308.378907 L172.999858,307.363276 L172.999858,306.363277 L173.038920,305.363278 L173.449079,304.363279 L173.999858,303.363280 L173.999858,302.363281 L173.999858,301.363282 L173.999858,300.363283 L174.277201,299.363284 L174.499853,298.886721 L174.738134,298.363285 L174.999857,297.363286 L174.999857,296.363286 L174.999857,295.363287 L174.999857,294.363288 L175.015477,293.363289 L175.257665,292.363268 L175.499853,291.511717 L175.999857,290.363270 L175.999857,289.363271 L175.999857,288.363272 L175.999857,287.363273 L175.999857,286.363274 L175.523296,285.363275 L174.499853,285.863274 L173.999858,286.363274 L173.499862,286.863273 L172.722515,287.363273 L172.499862,287.585933 L171.499863,287.863272 L170.999858,288.363272 L170.499863,288.863271 L169.890486,289.363271 L169.499863,289.753914 L168.499863,289.992184 L168.128776,290.363270 L167.499864,290.863270 L166.999868,291.363269 L166.499872,291.863269 L165.945186,292.363268 L165.499873,292.808589 L164.640494,293.363289 L163.499873,293.863289 L162.999877,294.363288 L162.499873,294.863288 L161.999878,295.363287 L161.499874,295.863287 L160.945187,296.363286 L160.499874,296.808585 L159.828001,297.363286 L159.499883,297.691401 L158.675659,298.363285 L158.499883,298.539049 L157.499883,299.316410 L156.499883,299.863283 L155.999888,300.363283 L155.499884,300.863282 L154.999888,301.363282 L154.499884,301.863281 L153.999888,302.363281 L153.499893,302.863280 L152.999888,303.363280 L152.499893,303.863279 L151.999889,304.363279 L151.499893,304.863278 L150.999889,305.363278 L150.499893,305.863277 L149.999898,306.363277 L149.499894,306.863276 L148.999898,307.363276 L148.499894,307.863276 L147.999898,308.363275 L147.499894,308.863275 L146.999898,309.363274 L146.499903,310.125003 L146.261622,310.363273 L145.562399,311.363272 L144.734277,312.363271 L144.499903,312.597661 L143.871000,313.363270 L143.499904,313.734379 L142.960846,314.363269 L142.499904,314.824222 L141.999908,315.363268 L141.499904,315.863268 L140.999908,316.363267 L140.499904,316.863289 L139.999909,317.363289 L139.499913,317.863288 L138.999909,318.363288 L138.499913,318.863287 L137.999909,319.363287 L137.499914,319.863286 L136.999909,320.363286 L136.499914,320.863285 L135.999918,321.363285 L135.499914,321.863284 L134.999918,322.363284 L134.499914,322.863283 L133.999919,323.363283 L133.499915,323.863282 L132.999919,324.363282 L132.499923,324.863281 L131.999919,325.363281 L131.499924,325.863281 L130.999919,326.363280 L130.499924,326.863280 L129.999920,327.363279 L129.499924,327.863279 L128.999928,328.363278 L128.499924,328.863278 L127.999929,329.363277 L127.499925,329.863277 L126.917897,330.363276 L126.499933,330.781258 L125.699152,331.363275 L125.499934,331.562499 L124.499934,332.183585 L124.320242,332.363274 L123.499934,332.863274 L122.999938,333.363273 L122.499934,333.863273 L121.988217,334.363272 L121.499935,334.851565 L120.632750,335.363271 L119.499944,335.863271 L118.999939,336.363271 L118.499944,336.863270 L117.499944,337.339833 L116.499944,337.863269 L115.640574,338.363269 L114.499945,338.863268 L113.519480,339.363268 L112.499954,339.863289 L111.499954,339.863289 L110.734328,340.363289 L110.499954,340.597657 L109.499955,340.863288 L108.499955,340.863288 L107.499959,340.863288 L106.499960,341.164064 L105.605430,341.363288 L104.499964,341.562490 L103.499965,341.703132 L102.499965,341.675771 L101.499965,341.488277 L100.941376,341.363288 L100.499970,341.253909 L99.499970,340.863288 L98.499970,340.863288 L97.499975,340.863288 L96.499975,340.781249 L95.945289,340.363289 L95.499975,339.992181 L94.499980,339.863289 L93.499980,339.636726 L93.226544,339.363268 L92.499980,338.863268 L91.499980,338.562492 L91.300762,338.363269 L90.499985,337.863269 L89.999985,337.363270 L89.499985,336.863270 L88.757797,336.363271 L88.499985,336.105466 L87.499990,335.613271 L87.249988,335.363271 L86.499990,334.515623 L86.347648,334.363272 L85.609367,333.363273 L84.999990,332.363274 L84.499991,331.863275 L83.999995,331.363275 L83.499995,330.621081 L83.242183,330.363276 L82.999995,329.363277 L82.499995,328.808599 L82.054682,328.363278 L81.999996,327.363279 L81.996088,326.363280 L81.499996,325.851551 L81.015624,325.363281 L81.000000,324.363282 L81.000000,323.363283 L81.000000,322.363284 L81.000000,321.363285 L81.000000,320.363286 L81.000000,319.363287 L81.000000,318.363288 L81.109373,317.363289 L81.499996,316.972646 L81.999996,316.363267 L81.999996,315.363268 L81.999996,314.363269 L82.499995,313.863270 L82.999995,313.363270 L82.999995,312.363271 L83.499995,311.863272 L83.999995,311.363272 L84.031243,310.363273 L84.499991,309.894537 L84.999990,309.363274 L85.499990,308.511723 L85.648430,308.363275 L86.015614,307.363276 L86.499990,306.878908 L86.999990,306.363277 L87.499990,305.863277 L87.999985,305.363278 L88.499985,304.863278 L88.999985,304.363279 L89.499985,303.863279 L89.999985,303.363280 L90.499985,302.863280 L90.999985,302.363281 L91.499980,301.863281 L91.999980,301.363282 L92.499980,300.863282 L93.179667,300.363283 L93.499980,300.042973 L94.499980,299.863283 L94.999975,299.363284 L95.499975,298.863284 L96.265601,298.363285 L96.499975,298.128895 L97.499975,297.863285 L97.999970,297.363286 L98.499970,296.863286 L99.499970,296.863286 L99.999970,296.363286 L100.499970,295.863287 L101.499965,295.863287 L101.999965,295.363287 L102.499965,294.863288 L103.499965,294.863288 L104.164024,294.363288 L104.499964,294.027346 L105.499960,293.863289 L106.499960,293.863289 L107.066363,293.363289 L107.499959,292.929676 L108.499955,292.863268 L109.499955,292.863268 L110.226518,292.363268 L110.499954,292.089832 L111.499954,291.863269 L112.499954,291.863269 L113.499945,291.499987 L114.499945,290.898436 L115.499945,290.863270 L116.499944,290.863270 L117.499944,290.386707 L118.499944,289.875000 L119.499944,289.863271 L120.499935,289.863271 L121.499935,289.472650 L122.499934,288.945311 L123.499934,288.863271 L124.499934,288.863271 L125.499934,288.863271 L126.226489,288.363272 L126.499933,288.089835 L127.499925,287.863272 L128.499924,287.863272 L129.499924,287.863272 L130.480388,287.363273 L131.499924,286.902342 L132.499923,286.863273 L133.499915,286.863273 L134.499914,286.863273 L135.324138,286.363274 L135.499914,286.187487 L136.499914,285.863274 L137.499914,285.863274 L138.499913,285.863274 L139.499913,285.398441 L140.499904,284.902344 L141.499904,284.863275 L142.499904,284.863275 L143.499904,284.621080 L143.863185,284.363276 L144.499903,284.007799 L145.499903,283.863276 L146.499903,283.863276 L147.499894,283.386714 L148.499894,282.863277 L149.499894,282.863277 L150.499893,282.863277 L151.179581,282.363278 L151.499893,282.042968 L152.499893,281.863278 L153.499893,281.863278 L154.347542,281.363279 L154.499884,281.210928 L155.499884,280.863279 L156.499883,280.863279 L157.300665,280.363280 L157.499883,280.164056 L158.499883,279.863280 L159.499883,279.863280 L160.249880,279.363281 L160.499874,279.113281 L161.499874,278.863281 L162.499873,278.863281 L163.035033,278.363281 L163.499873,277.898426 L164.499873,277.863282 L165.437368,277.363282 L166.499872,276.863283 L167.499864,276.863283 L168.066271,276.363283 L168.499863,275.929692 L169.257675,275.363284 L168.499863,274.863285 L167.535027,274.363285 L166.499872,273.863286 L165.499873,273.562488 L165.300654,273.363286 L164.499873,272.863287 L163.499873,272.753908 L163.109250,272.363287 L162.499873,271.863288 L161.499874,271.863288 L160.593627,271.363288 L159.499883,270.863289 L158.499883,270.847657 L158.015507,270.363289 L157.499883,269.863267 L156.499883,269.863267 L155.499884,269.691405 L155.171757,269.363268 L154.499884,268.863268 L153.499893,268.863268 L152.499893,268.667969 L152.195200,268.363269 L151.499893,267.863269 L150.499893,267.863269 L149.499894,267.863269 L148.570204,267.363270 L147.499894,266.863270 L146.499903,266.863270 L145.499903,266.605466 L145.257715,266.363271 L144.499903,265.863271 L143.499904,265.863271 L142.499904,265.863271 L141.499904,265.644535 L141.218654,265.363272 L140.499904,264.863272 L139.499913,264.863272 L138.499913,264.863272 L137.499914,264.800789 L136.554604,264.363273 L135.499914,263.863273 L134.499914,263.863273 L133.499915,263.863273 L132.499923,263.570302 L132.292891,263.363274 L131.499924,262.863274 L130.499924,262.863274 L129.499924,262.863274 L128.499924,262.808596 L127.515553,262.363275 L126.499933,261.863275 L125.499934,261.863275 L124.499934,261.863275 L123.499934,261.515626 L123.347592,261.363276 L122.499934,260.863276 L121.499935,260.863276 L120.499935,260.863276 L119.499944,260.613276 L119.249942,260.363276 L118.499944,259.863277 L117.499944,259.863277 L116.499944,259.863277 L115.499945,259.531237 L115.331974,259.363277 L114.499945,258.863278 L113.499945,258.863278 L112.499954,258.863278 L111.546831,258.363278 L110.499954,257.863279 L109.499955,257.863279 L108.499955,257.621084 L108.242143,257.363279 L107.499959,256.863280 L106.499960,256.863280 L105.499960,256.726562 L105.136682,256.363280 L104.499964,255.863281 L103.499965,255.863281 L102.499965,255.726562 L102.136683,255.363281 L101.499965,254.863282 L100.499970,254.863282 L99.499970,254.406253 L98.499970,253.863283 L97.499975,253.703128 L97.160131,253.363283 L96.499975,252.863284 L95.499975,252.781244 L95.082007,252.363284 L94.499980,251.863285 L93.499980,251.406256 L92.499980,250.800780 L92.062481,250.363286 L91.499980,249.863286 L90.999985,249.363287 L90.499985,248.863287 L89.999985,248.363288 L89.499985,247.863288 L88.999985,247.363289 L88.499985,246.863289 L87.999985,246.363268 L87.499990,245.863268 L86.999990,245.363269 L86.499990,244.863269 L85.999990,244.363270 L85.499990,243.488281 L84.999990,242.363271 L84.499991,241.863272 L83.999995,241.363272 L83.558589,240.363273 L82.999995,239.363274 L82.999995,238.363275 L82.499995,237.769529 L82.093748,237.363276 L81.999996,236.363277 L81.679683,235.363278 L81.499996,234.925784 L81.292967,234.363279 L81.054686,233.363280 L81.000000,232.363281 L81.000000,231.363282 L81.000000,230.363283 L81.000000,229.363284 L81.000000,228.363285 L81.000000,227.363286 L81.000000,226.363287 L81.035155,225.363288 L81.499996,224.898432 L81.999996,224.363289 L81.999996,223.363290 L82.062496,222.363291 L82.499995,221.925774 L82.999995,221.363292 L83.265621,220.363292 L83.499995,220.128902 L83.999995,219.363293 L84.499991,218.863294 L84.999990,218.363294 L85.499990,217.601566 L85.738271,217.363273 L86.339834,216.363274 L86.499990,216.203119 L87.382799,215.363275 L88.499985,214.863276 L88.999985,214.363276 L89.499985,213.863276 L89.999985,213.363277 L90.499985,212.863277 L91.499980,212.398422 L92.499980,211.863278 L93.339824,211.363279 L93.499980,211.203124 L94.499980,210.863279 L95.499975,210.863279 L96.437474,210.363280 L97.499975,209.863280 L98.499970,209.863280 L99.499970,209.863280 L100.499970,209.863280 L101.499965,209.863280 L102.499965,209.863280 L103.499965,209.863280 L104.499964,209.863280 L105.499960,209.863280 L106.499960,210.164056 L106.699178,210.363280 L107.499959,210.863279 L108.499955,210.863279 L109.499955,210.863279 L110.499954,211.027337 L110.835887,211.363279 L111.499954,211.863278 L112.499954,211.863278 L113.499945,212.222657 L114.499945,212.863277 L115.499945,212.863277 L115.999949,213.363277 L116.499944,213.863276 L117.499944,213.863276 L117.999940,214.363276 L118.499944,214.863276 L119.499944,214.863276 L119.999939,215.363275 L120.499935,215.863275 L121.499935,216.195314 L121.667905,216.363274 L122.499934,216.863274 L122.999938,217.363273 L123.499934,217.863295 L124.499934,218.222651 L125.499934,218.863294 L125.999929,219.363293 L126.499933,219.863293 L126.999929,220.363292 L127.499925,220.863292 L127.999929,221.363292 L128.499924,221.863291 L129.499924,222.273446 L130.499924,223.015618 L130.847577,223.363290 L131.499924,223.867192 L131.996012,224.363289 L132.499923,224.863288 L132.999919,225.363288 L133.499915,225.863287 L133.999919,226.363287 L134.499914,226.863286 L134.999918,227.363286 L135.499914,227.863285 L135.999918,228.363285 L136.499914,228.863284 L136.999909,229.363284 L137.499914,229.863283 L137.999909,230.363283 L138.499913,230.863282 L138.999909,231.363282 L139.499913,231.917960 L139.945218,232.363281 L140.499904,233.023436 L140.839752,233.363280 L141.499904,234.164055 L141.699123,234.363279 L142.499904,235.343744 L143.195219,236.363277 L143.499904,236.667955 L143.999899,237.363276 L144.499903,237.863276 L144.999899,238.363275 L145.499903,238.863275 L145.999899,239.363274 L146.499903,239.863274 L146.999898,240.363273 L147.499894,240.863273 L147.999898,241.363272 L148.499894,241.863272 L148.999898,242.363271 L149.499894,242.878903 L149.984269,243.363271 L150.499893,243.953115 L150.910052,244.363270 L151.499893,245.050786 L151.812391,245.363269 L152.499893,246.164066 L152.699111,246.363268 L153.499893,247.164065 L153.699103,247.363289 L154.499884,248.082024 L154.781134,248.363288 L155.499884,249.015615 L155.847537,249.363287 L156.499883,249.953131 L156.910042,250.363286 L157.499883,250.898430 L157.964723,251.363285 L158.499883,251.863285 L158.999878,252.363284 L159.499883,252.863284 L159.999878,253.363283 L160.499874,253.863283 L160.999878,254.363282 L161.499874,254.863282 L161.999878,255.363281 L162.499873,255.863281 L163.499873,256.300775 L164.499873,256.992193 L164.870969,257.363279 L165.499873,257.863279 L165.999868,258.363278 L166.499872,258.863278 L166.999868,259.363277 L167.499864,259.863277 L168.476429,260.363276 L169.499863,260.863276 L169.999867,261.363276 L170.499863,261.863275 L171.335799,262.363275 L171.499863,262.527332 L172.499862,262.898440 L172.964703,263.363274 L173.499862,263.863273 L174.085796,264.363273 L174.499853,264.777330 L175.499853,264.945312 L175.999857,264.363273 L175.999857,263.363274 L175.999857,262.363275 L175.999857,261.363276 L175.999857,260.363276 L175.999857,259.363277 L175.648297,258.363278 L175.499853,257.761727 L175.382666,257.363279 L175.179541,256.363280 L174.999857,255.363281 L174.999857,254.363282 L174.999857,253.363283 L174.999857,252.363284 L174.648297,251.363285 L174.499853,251.085924 L174.226417,250.363286 L173.999858,249.363287 L173.999858,248.363288 L173.999858,247.363289 L173.999858,246.363268 L173.499862,245.488280 L172.999858,244.363270 L172.999858,243.363271 L172.999858,242.363271 L172.499862,241.406244 L171.999858,240.363273 L171.999858,239.363274 L171.999858,238.363275 L171.546739,237.363276 L170.999858,236.363277 L170.999858,235.363278 L170.835804,234.363279 L170.499863,234.011705 L170.023301,233.363280 L169.999867,232.363281 L169.999867,231.363282 L169.499863,230.746076 L169.117054,230.363283 L168.999867,229.363284 L168.999867,228.363285 L168.499863,227.675791 L168.187365,227.363286 L167.999868,226.363287 L167.999868,225.363288 L167.499864,224.703111 L167.160024,224.363289 L166.999868,223.363290 L166.999868,222.363291 L166.499872,221.726573 L166.136590,221.363292 L165.999868,220.363292 L165.999868,219.363293 L165.499873,218.644536 L165.218622,218.363294 L164.999868,217.363273 L164.999868,216.363274 L164.499873,215.546867 L164.316274,215.363275 L163.999869,214.363276 L163.999869,213.363277 L163.609246,212.363278 L162.999877,211.363279 L162.999877,210.363280 L162.999877,209.363281 L162.499873,208.597650 L162.265500,208.363282 L161.999878,207.363283 L161.999878,206.363284 L161.999878,205.363262 L161.499874,204.675769 L161.187375,204.363263 L160.999878,203.363264 L160.999878,202.363265 L160.999878,201.363266 L160.499874,200.480473 L160.015507,199.363268 L159.999878,198.363269 L159.999878,197.363270 L159.999878,196.363271 L159.999878,195.363272 L159.499883,194.433605 L159.226438,193.363274 L159.120972,192.363275 L159.035034,191.363276 L159.074096,190.363277 L159.187376,189.363278 L159.316284,188.363279 L159.456913,187.363280 L159.648318,186.363281 L159.999878,185.363281 L159.999878,184.363282 L159.999878,183.363283 L159.999878,182.363284 L160.109251,181.363285 L160.499874,180.484373 L160.999878,179.363287 L160.999878,178.363288 L161.300655,177.363289 L161.499874,177.164043 L161.999878,176.363290 L162.015498,175.363291 L162.499873,174.878901 L162.999877,174.363292 L162.999877,173.363293 L163.499873,172.863293 L163.999869,172.363294 L164.499873,171.621077 L164.757681,171.363295 L165.101435,170.363274 L165.499873,169.964848 L165.999868,169.363275 L166.499872,168.863275 L167.011589,168.363276 L167.499864,167.875005 L168.101426,167.363276 L168.499863,166.964851 L169.277211,166.363277 L169.499863,166.140617 L170.499863,165.863278 L170.999858,165.363278 L171.499863,164.863279 L172.499862,164.863279 L172.999858,164.363279 L173.499862,163.863280 L174.499853,163.863280 L175.374852,163.363280 L176.499853,162.863281 L177.499853,162.863281 L178.499852,162.863281 L179.499852,162.699223 L180.433440,162.363281 L181.499843,162.105477 L182.499851,162.000000 L183.499843,162.195321 L184.089692,162.363281 L184.499834,162.500000 L185.499842,162.863281 L186.499833,162.863281 L187.499842,162.863281 L188.495926,163.363280 L189.499841,163.863280 L190.499832,163.953125 L190.909991,164.363279 L191.499824,164.863279 L192.195148,165.363278 L192.499832,165.667957 L193.499823,165.894520 L193.968571,166.363277 L194.499831,166.863277 L194.999818,167.363276 L195.499823,167.863276 L195.999827,168.363276 L196.499831,168.863275 L196.999818,169.363275 L197.499822,170.074205 L197.788878,170.363274 L197.999826,171.363295 L198.499813,171.863294 L198.999817,172.363294 L199.499822,173.050788 L199.812320,173.363293 L199.999826,174.363292 L200.499813,175.351562 L200.999817,176.363290 L200.999817,177.363289 L201.499821,177.957036 L201.906072,178.363288 L201.999808,179.363287 L201.999808,180.363286 L201.999808,181.363285 L202.499812,182.238273 L202.999816,183.363283 L202.999816,184.363282 L202.999816,185.363281 L202.999816,186.363281 L202.999816,187.363280 L202.999816,188.363279 L202.999816,189.363278 L202.999816,190.363277 L202.999816,191.363276 L202.999816,192.363275 L202.999816,193.363274 L202.999816,194.363273 L202.999816,195.363272 L202.999816,196.363271 L202.999816,197.363270 L202.820125,198.363269 L202.499812,199.250009 L201.999808,200.363267 L201.999808,201.363266 L201.999808,202.363265 L201.999808,203.363264 L201.773249,204.363263 L201.499821,204.925791 L201.261540,205.363262 L200.999817,206.363284 L200.999817,207.363283 L200.917785,208.363282 L200.499813,209.183591 L200.351378,209.363281 L199.999826,210.363280 L199.999826,211.363279 L199.945127,212.363278 L199.499822,213.257800 L198.999817,214.363276 L198.999817,215.363275 L198.757630,216.363274 L198.499813,216.621079 L197.999826,217.363273 L197.999826,218.363294 L197.917794,219.363293 L197.499822,219.781253 L196.999818,220.363292 L196.999818,221.363292 L196.999818,222.363291 L196.499831,223.304687 L195.999827,224.363289 L195.999827,225.363288 L195.659979,226.363287 L195.499823,226.523420 L194.999818,227.363286 L194.999818,228.363285 L194.839662,229.363284 L194.499831,229.703106 L193.999827,230.363283 L193.999827,231.363282 L193.995920,232.363281 L193.499823,233.179688 L193.320148,233.363280 L192.999836,234.363279 L192.999836,235.363278 L192.683430,236.363277 L192.499832,236.546869 L191.999828,237.363276 L191.999828,238.363275 L191.999828,239.363274 L191.699051,240.363273 L191.499824,240.562497 L190.999836,241.363272 L190.999836,242.363271 L190.999836,243.363271 L190.714671,244.363270 L190.499832,244.578125 L189.999828,245.363269 L189.999828,246.363268 L189.999828,247.363289 L189.995921,248.363288 L189.632648,249.363287 L188.999837,250.363286 L188.999837,251.363285 L188.999837,252.363284 L188.999837,253.363283 L188.765463,254.363282 L188.499833,254.835943 L188.218591,255.363281 L187.999829,256.363280 L187.999829,257.363279 L187.999829,258.363278 L187.999829,259.363277 L187.999829,260.363276 L187.839672,261.363276 L187.577966,262.363275 L187.085776,263.363274 L186.999837,264.363273 L187.499842,264.972651 L188.499833,264.863272 L188.999837,264.363273 L189.499841,263.863273 L190.382637,263.363274 L191.499824,262.863274 L191.999828,262.363275 L192.499832,261.863275 L193.257635,261.363276 L193.499823,261.121081 L194.499831,260.863276 L194.999818,260.363276 L195.499823,259.863277 L195.999827,259.363277 L196.499831,258.863278 L197.163881,258.363278 L197.499822,258.027336 L198.499813,257.433590 L199.499822,256.863280 L199.999826,256.363280 L200.499813,255.863281 L200.999817,255.363281 L201.499821,254.863282 L202.066228,254.363282 L202.499812,253.929691 L203.152158,253.363283 L203.499821,253.015612 L204.265438,252.363284 L204.499812,252.128894 L205.402160,251.363285 L206.499811,250.445304 L207.499803,249.863286 L207.999807,249.363287 L208.499811,248.863287 L208.999798,248.363288 L209.499802,247.667967 L209.804486,247.363289 L210.499810,246.433600 L211.429491,245.363269 L212.324025,244.363270 L212.499793,244.187505 L213.234171,243.363271 L213.499801,243.097661 L214.152147,242.363271 L214.499792,242.015622 L215.023239,241.363272 L215.499801,240.886710 L215.999788,240.363273 L216.499792,239.863274 L216.999796,239.363274 L217.499800,238.863275 L217.999787,238.363275 L218.499791,237.863276 L218.999795,237.363276 L219.499783,236.644519 L219.781041,236.363277 L220.468534,235.363278 L221.292758,234.363279 L221.499782,234.156250 L222.152128,233.363280 L222.499790,233.015609 L223.062291,232.363281 L223.499782,231.925765 L224.011507,231.363282 L224.499773,230.874990 L224.999777,230.363283 L225.499781,229.863283 L225.999785,229.363284 L226.499772,228.863284 L226.999776,228.363285 L227.499781,227.863285 L227.999768,227.363286 L228.499772,226.863286 L228.999776,226.363287 L229.499780,225.863287 L229.999767,225.363288 L230.499771,224.863288 L230.999775,224.363289 L231.499763,223.863289 L231.999767,223.363290 L232.499771,222.863290 L233.023200,222.363291 L233.499762,221.886706 L234.120869,221.363292 L234.499770,220.984356 L235.331791,220.363292 L235.499762,220.195310 L236.499770,219.578127 L236.714608,219.363293 L237.499761,218.863294 L237.999765,218.363294 L238.499752,217.863295 L239.054438,217.363273 L239.499760,216.917974 L240.499752,216.667952 L240.804436,216.363274 L241.499760,215.863275 L242.187253,215.363275 L242.499751,215.050792 L243.499759,214.863276 L244.179438,214.363276 L244.499751,214.042966 L245.499742,213.863276 L246.210677,213.363277 L246.499750,213.074208 L247.499741,212.863277 L248.499750,212.863277 L249.054436,212.363278 L249.499741,211.917979 L250.499749,211.863278 L251.499740,211.863278 L252.316150,211.363279 L252.499732,211.179687 L253.499740,210.863279 L254.499731,210.863279 L255.499739,210.863279 L256.499731,210.863279 L257.499739,210.863279 L258.499730,210.542969 L259.382543,210.363280 L260.499730,210.246096 L261.030973,210.363280 L261.499721,210.472659 L262.499729,210.863279 L263.499720,210.863279 L264.499729,210.863279 L265.499720,210.863279 L266.499711,211.042969 L266.820024,211.363279 L267.499719,211.863278 L268.499711,211.863278 L269.499719,212.222657 L270.499710,212.863277 L271.476276,213.363277 L272.499710,213.863276 L272.999714,214.363276 L273.499701,214.863276 L273.999705,215.363275 L274.499709,215.863275 L274.999696,216.363274 L275.499700,216.863274 L275.999705,217.363273 L276.499709,217.863295 L276.999696,218.363294 L277.499700,218.863294 L277.999704,219.363293 L278.464545,220.363292 L278.999695,221.363292 L279.499699,222.171872 L279.691095,222.363291 L279.999704,223.363290 L279.999704,224.363289 L280.499691,225.015616 L280.847353,225.363288 L280.999695,226.363287 L280.999695,227.363286 L280.999695,228.363285 L280.999695,229.363284 L281.300472,230.363283 L281.320007,231.363282 L280.999695,232.363281 L280.999695,233.363280 L280.999695,234.363279 L280.999695,235.363278 L280.987974,236.363277 L280.499691,236.851569 L279.999704,237.363276 L279.999704,238.363275 L279.839547,239.363274 L279.499699,239.703119 L278.999695,240.363273 L278.870796,241.363272 L278.499691,241.734381 L277.999704,242.363271 L277.499700,242.863271 L276.999696,243.363271 L276.960642,244.363270 L276.499709,244.824223 L275.999705,245.363269 L275.499700,245.863268 L274.999696,246.363268 L274.499709,246.863289 L273.999705,247.363289 L273.499701,247.863288 L272.999714,248.363288 L272.499710,248.863287 L271.995799,249.363287 L271.499701,249.859362 L270.616906,250.363286 L269.499719,250.863286 L268.995808,251.363285 L268.499711,251.859382 L267.499719,251.863285 L266.999715,252.363284 L266.499711,252.863284 L265.499720,252.863284 L264.999716,253.363283 L264.499729,253.863283 L263.499720,253.863283 L262.952848,254.363282 L262.499729,254.816408 L261.499721,254.863282 L260.562226,255.363281 L259.499721,255.863281 L258.499730,255.863281 L257.847384,256.363280 L257.499739,256.710930 L256.499731,256.863280 L255.499739,256.863280 L254.882540,257.363279 L254.499731,257.746095 L253.499740,257.863279 L252.499732,257.863279 L251.847403,258.363278 L251.499740,258.710928 L250.499749,258.863278 L249.499741,258.863278 L248.624742,259.363277 L247.499741,259.863277 L246.499750,259.863277 L245.499742,259.949219 L245.003662,260.363276 L244.499751,260.781236 L243.499759,260.863276 L242.499751,260.863276 L241.499760,261.328131 L240.499752,261.851568 L239.499760,261.863275 L238.499752,261.863275 L237.519296,262.363275 L236.499770,262.863274 L235.499762,262.863274 L234.499770,262.863274 L233.499762,263.269526 L232.499771,263.781255 L231.499763,263.863273 L230.499771,263.863273 L229.499780,263.863273 L228.773216,264.363273 L228.499772,264.636709 L227.499781,264.863272 L226.499772,264.863272 L225.499781,264.863272 L224.659929,265.363272 L224.499773,265.523427 L223.499782,265.863271 L222.499790,265.863271 L221.499782,265.863271 L220.562287,266.363271 L219.499783,266.863270 L218.499791,266.863270 L217.499800,266.863270 L216.542770,267.363270 L215.499801,267.863269 L214.499792,267.863269 L213.499801,267.863269 L212.812291,268.363269 L212.499793,268.675774 L211.499802,268.863268 L210.499810,268.863268 L209.499802,269.304687 L208.499811,269.863267 L207.499803,269.863267 L206.499811,269.949210 L206.074025,270.363289 L205.499803,270.847657 L204.499812,270.863289 L203.499821,270.863289 L202.976374,271.363288 L202.499812,271.839851 L201.499821,271.863288 L200.499813,271.863288 L199.995919,272.363287 L199.499822,272.859362 L198.499813,272.863287 L197.605296,273.363286 L196.499831,273.863286 L195.499823,273.863286 L194.952950,274.363285 L194.499831,274.816411 L193.499823,274.863285 L192.999836,275.363284 L193.499823,275.878894 L193.984199,276.363283 L194.499831,276.863283 L195.499823,276.863283 L195.999827,277.363282 L196.499831,277.863282 L197.499822,277.863282 L198.284975,278.363281 L198.499813,278.578115 L199.499822,278.863281 L200.499813,279.210930 L200.652155,279.363281 L201.499821,279.863280 L202.499812,279.863280 L203.406068,280.363280 L204.499812,280.863279 L205.499803,280.886716 L205.976365,281.363279 L206.499811,281.863278 L207.499803,281.863278 L208.499811,282.007801 L208.855270,282.363278 L209.499802,282.863277 L210.499810,282.863277 L211.499802,282.863277 L212.499793,283.300771 L213.499801,283.863276 L214.499792,283.863276 L215.499801,283.992190 L215.870888,284.363276 L216.499792,284.863275 L217.499800,284.863275 L218.499791,284.863275 L219.499783,284.980459 L220.355263,285.363275 L221.499782,285.863274 L222.499790,285.863274 L223.499782,285.863274 L224.499773,286.140613 L224.722442,286.363274 L225.499781,286.863273 L226.499772,286.863273 L227.499781,286.863273 L228.499772,286.863273 L229.499780,287.210945 L229.652122,287.363273 L230.499771,287.863272 L231.499763,287.863272 L232.499771,287.863272 L233.499762,287.863272 L234.499770,288.171875 L234.691166,288.363272 L235.499762,288.863271 L236.499770,288.863271 L237.499761,288.863271 L238.499752,288.964846 L239.347418,289.363271 L240.499752,289.863271 L241.499760,289.863271 L242.499751,289.863271 L243.495852,290.363270 L244.499751,290.863270 L245.499742,290.863270 L246.499750,290.953114 L247.156004,291.363269 L247.499741,291.644533 L248.499750,291.863269 L249.499741,291.863269 L250.499749,292.265619 L251.499740,292.863268 L252.499732,292.863268 L253.499740,293.164066 L253.698950,293.363289 L254.499731,293.863289 L255.499739,293.863289 L256.499731,294.320317 L257.499739,294.863288 L258.499730,294.867190 L258.995827,295.363287 L259.499721,295.863287 L260.499730,295.863287 L261.363007,296.363286 L262.499729,296.863286 L263.499720,297.300780 L264.499729,297.863285 L265.163779,298.363285 L265.499720,298.699227 L266.499711,298.863284 L266.999715,299.363284 L267.499719,299.863283 L268.499711,300.312507 L269.499719,300.917961 L269.945024,301.363282 L270.499710,301.863281 L270.999714,302.363281 L271.499701,302.863280 L271.999706,303.363280 L272.499710,303.863279 L272.999714,304.363279 L273.499701,304.863278 L273.999705,305.363278 L274.499709,305.863277 L274.999696,306.363277 L275.499700,307.210926 L275.652043,307.363276 L275.999705,308.363275 L276.499709,308.863275 L276.999696,309.363274 L277.499700,310.230457 L277.999704,311.363272 L278.499691,312.222651 L278.999695,313.363270 L278.999695,314.363269 L279.499699,314.937504 L279.925486,315.363268 L279.999704,316.363267 L279.999704,317.363289 L279.999704,318.363288 L280.163767,319.363287 L280.499691,320.214838 L280.820003,321.363285 L280.698918,322.363284 L280.499691,323.277341 L279.999704,324.363282 L279.999704,325.363281 L279.999704,326.363280 L279.882508,327.363279 L279.499699,327.746095 L278.999695,328.363278 L278.999695,329.363277 L278.499691,330.105472 L278.241892,330.363276 L277.999704,331.363275 L277.499700,331.863275 L276.999696,332.363274 L276.499709,333.339837 L275.765331,334.363272 L275.499700,334.628904 L274.933293,335.363271 L274.499709,335.796863 L273.741889,336.363271 L273.499701,336.605465 L272.499710,337.164068 L272.300483,337.363270 L271.499701,337.863269 L270.999714,338.363269 L270.499710,338.863268 L269.499719,338.863268 L268.999715,339.363268 L268.499711,339.863289 L267.499719,339.863289 L266.804412,340.363289 L266.499711,340.667967 L265.499720,340.863288 L264.499729,340.863288 L263.499720,340.863288 L262.499729,341.304685 L261.499721,341.539053 L260.499730,341.710937 L259.499721,341.636724 L258.499730,341.453133 L258.226286,341.363288 L257.499739,341.199208 L256.499731,340.863288 L255.499739,340.863288 L254.499731,340.863288 L253.499740,340.789053 L252.644277,340.363289 L251.499740,339.863289 L250.499749,339.863289 L249.781000,339.363268 L249.499741,339.082026 L248.499750,338.863268 L247.499741,338.703113 L247.159911,338.363269 L246.499750,337.863269 L245.499742,337.753912 L245.109119,337.363270 L244.499751,336.863270 L243.499759,336.710942 L243.152097,336.363271 L242.499751,335.863271 L241.499760,335.503914 L240.499752,334.863272 L239.999765,334.363272 L239.499760,333.863273 L238.499752,333.453118 L237.499761,332.839837 L237.023199,332.363274 L236.499770,331.863275 L235.999766,331.363275 L235.499762,330.863276 L234.999757,330.363276 L234.499770,329.863277 L233.503669,329.363277 L232.499771,328.531238 L232.331800,328.363278 L231.499763,327.660152 L231.202892,327.363279 L230.499771,326.753901 L230.109148,326.363280 L229.499780,325.769533 L229.093529,325.363281 L228.499772,324.781242 L228.081799,324.363282 L227.499781,323.796875 L227.066180,323.363283 L226.499772,322.769536 L226.093521,322.363284 L225.499781,321.710934 L225.152119,321.363285 L224.499773,320.644527 L224.218531,320.363286 L223.499782,319.570315 L223.292757,319.363287 L222.499790,318.406237 L221.757598,317.363289 L221.499782,317.105462 L220.999778,316.363267 L220.499791,315.863268 L219.999787,315.363268 L219.499783,314.863269 L218.999795,314.363269 L218.499791,313.863270 L217.999787,313.363270 L217.499800,312.863271 L216.999796,312.363271 L216.499792,311.734380 L216.128704,311.363272 L215.499801,310.531255 L215.331830,310.363273 L214.570103,309.363274 L213.999805,308.363275 L213.499801,307.863276 L212.999797,307.363276 L212.499793,306.863276 L211.999806,306.363277 L211.499802,305.863277 L210.999797,305.363278 L210.499810,304.863278 L209.999806,304.363279 L209.499802,303.863279 L208.999798,303.363280 L208.499811,302.863280 L207.999807,302.363281 L207.499803,301.863281 L206.999815,301.363282 L206.499811,300.863282 L205.999807,300.363283 L205.499803,299.863283 L204.999816,299.363284 L204.499812,298.863284 L203.999808,298.363285 L203.499821,297.863285 L202.999816,297.363286 L202.499812,296.863286 L201.999808,296.363286 L201.499821,295.863287 L200.570123,295.363287 L199.499822,294.621093 L199.242005,294.363288 L198.499813,293.816393 L198.046694,293.363289 L197.499822,292.863268 L196.999818,292.363268 L196.499831,291.863269 L195.999827,291.363269 L195.499823,290.863270 L194.558420,290.363270 L193.499823,289.773426 L193.089665,289.363271 L192.499832,288.863271 L191.999828,288.363272 L191.499824,287.863272 L190.534996,287.363273 L189.499841,286.781256 L189.081869,286.363274 L188.499833,285.863274 L187.499842,285.433585 L186.999837,286.363274 L186.999837,287.363273 L187.003744,288.363272 L187.441235,289.363271 L187.499842,289.582029 L187.632648,290.363270 L187.788897,291.363269 L187.925611,292.363268 L187.999829,293.363289 L187.999829,294.363288 L187.999829,295.363287 L187.999829,296.363286 L188.003736,297.363286 L188.499833,298.226566 L188.925619,299.363284 L188.999837,300.363283 L188.999837,301.363282 L188.999837,302.363281 L189.320149,303.363280 L189.499841,303.621084 L189.855300,304.363279 L189.999828,305.363278 L189.999828,306.363277 L189.999828,307.363276 L190.499832,308.257821 L190.999836,309.363274 L190.999836,310.363273 L190.999836,311.363272 L191.499824,312.195311 L191.667794,312.363271 L191.999828,313.363270 L191.999828,314.363269 L192.195148,315.363268 L192.499832,315.722647 L192.925618,316.363267 L192.999836,317.363289 L192.999836,318.363288 L193.499823,319.222644 L193.999827,320.363286 L193.999827,321.363285 L194.351396,322.363284 L194.499831,322.511709 L194.999818,323.363283 L194.999818,324.363282 L194.999818,325.363281 L195.499823,326.042970 L195.820135,326.363280 L195.999827,327.363279 L195.999827,328.363278 L196.484202,329.363277 L196.999818,330.363276 L196.999818,331.363275 L196.999818,332.363274 L197.499822,333.089837 L197.773267,333.363273 L197.999826,334.363272 L197.999826,335.363271 L198.128726,336.363271 L198.499813,336.855465 L198.878732,337.363270 L198.999817,338.363269 L198.999817,339.363268 L199.363108,340.363289 L199.499822,340.527346 L199.917794,341.363288 L199.999826,342.363287 L199.999826,343.363286 L200.085747,344.363285 L200.499813,344.964837 L200.827939,345.363284 L200.999817,346.363283 L200.999817,347.363282 L200.999817,348.363281 L201.499821,349.351551 L201.937312,350.363279 L201.999808,351.363278 L201.999808,352.363277 L201.999808,353.363276 L202.195128,354.363276 L202.499812,355.003896 L202.714651,355.363275 L202.984188,356.363274 L202.999816,357.363273 L202.999816,358.363272 L202.999816,359.363271 L202.999816,360.363270 L202.999816,361.363269 L202.999816,362.363268 L202.999816,363.363289 L202.999816,364.363288 L202.999816,365.363287 L202.999816,366.363286 L202.999816,367.363285 L202.999816,368.363284 L202.734186,369.363283 L202.499812,369.597651 L201.999808,370.363282 L201.999808,371.363281 L201.999808,372.363281 L201.550596,373.363280 L200.999817,374.363279 L200.714668,375.363278 L200.499813,375.578111 L199.999826,376.363277 L199.820134,377.363276 L199.499822,377.683586 L198.999817,378.363275 L198.499813,378.863274 L197.999826,379.363274 L197.570132,380.363273 L196.960764,381.363272 L196.499831,381.824225 L195.952942,382.363271 L195.499823,382.816397 L194.937322,383.363270 L194.499831,383.800786 L193.917795,384.363269 L193.499823,384.781251 L192.499832,385.253911 L191.499824,385.863268 L190.999836,386.363289 L190.499832,386.863289 L189.499841,386.863289 L188.988116,387.363288 L188.499833,387.851558 L187.499842,387.863288 L186.499833,388.374995 Z " style="fill: rgba(255, 255, 255, 1.000000); " fill="#feffff" stroke="none" />
</g></svg>