<svg width="367px" height="459px" xmlns="http://www.w3.org/2000/svg" xmlns:xlink="http://www.w3.org/1999/xlink">
<g style="">  <path d="M334.499995,454.999991 L333.500005,454.999991 L332.499994,454.999991 L331.500005,454.999991 L330.499994,454.999991 L329.500004,454.999991 L328.499993,454.999991 L327.500003,454.999991 L326.499992,454.999991 L325.500003,454.999991 L324.499992,454.999991 L323.500002,454.999991 L322.499991,454.999991 L321.500001,454.999991 L320.499990,454.999991 L319.500001,454.999991 L318.499990,454.999991 L317.500000,454.999991 L316.499989,454.999991 L315.500000,454.999991 L314.499988,454.999991 L313.499999,454.999991 L312.499988,454.999991 L311.499998,454.999991 L310.499987,454.999991 L309.499998,454.999991 L308.499986,454.999991 L307.499997,454.999991 L306.499986,454.999991 L305.499996,454.999991 L304.499985,454.999991 L303.499996,454.999991 L302.500006,454.999991 L301.499995,454.999991 L300.500006,454.999991 L299.499994,454.999991 L298.500005,454.999991 L297.499994,454.999991 L296.500004,454.999991 L295.499993,454.999991 L294.500004,454.999991 L293.499992,454.999991 L292.500003,454.999991 L291.499992,454.999991 L290.500002,454.999991 L289.499991,454.999991 L288.500002,454.999991 L287.499990,454.999991 L286.500001,454.999991 L285.499990,454.999991 L284.500000,454.999991 L283.499989,454.999991 L282.500000,454.999991 L281.499988,454.999991 L280.499999,454.999991 L279.499988,454.999991 L278.499998,454.999991 L277.499987,454.999991 L276.499998,454.999991 L275.499986,454.999991 L274.499997,454.999991 L273.499986,454.999991 L272.499996,454.999991 L271.500007,454.999991 L270.499996,454.999991 L269.500006,454.999991 L268.499995,454.999991 L267.500006,454.999991 L266.499994,454.999991 L265.500005,454.999991 L264.499994,454.999991 L263.500004,454.999991 L262.499993,454.999991 L261.500004,454.999991 L260.499992,454.999991 L259.500003,454.999991 L258.499992,454.999991 L257.500002,454.999991 L256.499991,454.999991 L255.500002,454.999991 L254.499990,454.999991 L253.500001,454.999991 L252.499990,454.999991 L251.500000,454.999991 L250.499989,454.999991 L249.500000,454.999991 L248.499988,454.999991 L247.499999,454.999991 L246.499988,454.999991 L245.499998,454.999991 L244.499987,454.999991 L243.499998,454.999991 L242.499987,454.999991 L241.499997,454.999991 L240.499986,454.999991 L239.499996,454.999991 L238.500007,454.999991 L237.499996,454.999991 L236.500006,454.999991 L235.499995,454.999991 L234.500006,454.999991 L233.499995,454.999991 L232.500005,454.999991 L231.499994,454.999991 L230.500004,454.999991 L229.499993,454.999991 L228.500004,454.999991 L227.499993,454.999991 L226.500003,454.999991 L225.499992,454.999991 L224.500003,454.999991 L223.499991,454.999991 L222.500002,454.999991 L221.499991,454.999991 L220.500001,454.999991 L219.499990,454.999991 L218.500001,454.999991 L217.499989,454.999991 L216.500000,454.999991 L215.499989,454.999991 L214.499999,454.999991 L213.499988,454.999991 L212.499999,454.999991 L211.499987,454.999991 L210.499998,454.999991 L209.499987,454.999991 L208.499997,454.999991 L207.500008,454.999991 L206.499997,454.999991 L205.500007,454.999991 L204.499996,454.999991 L203.500007,454.999991 L202.499995,454.999991 L201.500006,454.999991 L200.499995,454.999991 L199.500005,454.999991 L198.499994,454.999991 L197.500005,454.999991 L196.499993,454.999991 L195.500004,454.999991 L194.499993,454.999991 L193.500003,454.999991 L192.499992,454.999991 L191.500003,454.999991 L190.499991,454.999991 L189.500002,454.999991 L188.499991,454.999991 L187.500001,454.999991 L186.499990,454.999991 L185.500001,454.999991 L184.499989,454.999991 L183.500000,454.999991 L182.500000,454.999991 L181.499999,454.999991 L180.499999,454.999991 L179.499999,454.999991 L178.499998,454.999991 L177.499998,454.999991 L176.499998,454.999991 L175.499997,454.999991 L174.499997,454.999991 L173.499997,454.999991 L172.499996,454.999991 L171.499996,454.999991 L170.499996,454.999991 L169.499995,454.999991 L168.499995,454.999991 L167.499995,454.999991 L166.499994,454.999991 L165.499994,454.999991 L164.499994,454.999991 L163.499993,454.999991 L162.499993,454.999991 L161.499993,454.999991 L160.499992,454.999991 L159.500003,454.999991 L158.500003,454.999991 L157.500002,454.999991 L156.500002,454.999991 L155.500002,454.999991 L154.500001,454.999991 L153.500001,454.999991 L152.500001,454.999991 L151.500000,454.999991 L150.500000,454.999991 L149.500000,454.999991 L148.499999,454.999991 L147.499999,454.999991 L146.499999,454.999991 L145.499998,454.999991 L144.499998,454.999991 L143.499998,454.999991 L142.499997,454.999991 L141.499997,454.999991 L140.499997,454.999991 L139.499997,454.999991 L138.499996,454.999991 L137.499996,454.999991 L136.499996,454.999991 L135.499995,454.999991 L134.499995,454.999991 L133.499995,454.999991 L132.499994,454.999991 L131.499994,454.999991 L130.499994,454.999991 L129.499993,454.999991 L128.499993,454.999991 L127.500004,454.999991 L126.500003,454.999991 L125.500003,454.999991 L124.500003,454.999991 L123.500002,454.999991 L122.500002,454.999991 L121.500002,454.999991 L120.500001,454.999991 L119.500001,454.999991 L118.500001,454.999991 L117.500000,454.999991 L116.500000,454.999991 L115.500000,454.999991 L114.499999,454.999991 L113.499999,454.999991 L112.499999,454.999991 L111.499998,454.999991 L110.499998,454.999991 L109.499998,454.999991 L108.499997,454.999991 L107.499997,454.999991 L106.499997,454.999991 L105.499996,454.999991 L104.499996,454.999991 L103.499996,454.999991 L102.499995,454.999991 L101.499995,454.999991 L100.499995,454.999991 L99.499994,454.999991 L98.499994,454.999991 L97.499994,454.999991 L96.499993,454.999991 L95.500004,454.999991 L94.500004,454.999991 L93.500003,454.999991 L92.500003,454.999991 L91.499997,454.999991 L90.499997,454.999991 L89.499997,454.999991 L88.499996,454.999991 L87.500001,454.999991 L86.500001,454.999991 L85.500001,454.999991 L84.500000,454.999991 L83.500000,454.999991 L82.500000,454.999991 L81.499999,454.999991 L80.499999,454.999991 L79.499999,454.999991 L78.499998,454.999991 L77.499998,454.999991 L76.499998,454.999991 L75.499997,454.999991 L74.499997,454.999991 L73.499997,454.999991 L72.499996,454.999991 L71.500002,454.999991 L70.500001,454.999991 L69.500001,454.999991 L68.500001,454.999991 L67.500000,454.999991 L66.500000,454.999991 L65.500000,454.999991 L64.499999,454.999991 L63.499999,454.999991 L62.499999,454.999991 L61.499998,454.999991 L60.499998,454.999991 L59.499998,454.999991 L58.499997,454.999991 L57.499997,454.999991 L56.499997,454.999991 L55.500002,454.999991 L54.500001,454.999991 L53.500001,454.999991 L52.500001,454.999991 L51.500000,454.999991 L50.500000,454.999991 L49.500000,454.999991 L48.499999,454.999991 L47.499999,454.999991 L46.499999,454.999991 L45.499999,454.999991 L44.499998,454.999991 L43.500001,454.999991 L42.500000,454.999991 L41.500000,454.999991 L40.500000,454.999991 L39.499999,454.999991 L38.499999,454.999991 L37.499999,454.999991 L36.499998,454.999991 L35.500001,454.999991 L34.500000,454.999991 L33.500000,454.999991 L32.500000,454.999991 L31.499999,454.999991 L30.999999,454.499987 L30.499999,453.999982 L29.499999,453.999982 L28.499998,453.999982 L27.500001,453.999982 L26.500000,453.999982 L26.000000,453.499978 L25.500000,453.000000 L24.500000,453.000000 L23.500000,453.000000 L22.999999,452.499996 L22.499999,451.999991 L21.500000,451.999991 L21.000000,451.499987 L20.500000,450.999982 L19.500000,450.999982 L18.999999,450.499978 L18.499999,450.000001 L18.000000,449.499996 L17.500000,448.999991 L16.500000,448.999991 L16.000000,448.499987 L15.500000,447.999982 L14.999999,447.499978 L14.499999,447.000001 L13.999999,446.499996 L13.500000,445.999992 L13.000000,445.499987 L12.500000,444.999983 L12.000000,444.499978 L12.000000,443.499996 L11.500000,442.999992 L11.000000,442.499987 L10.500000,441.999983 L10.000000,441.499978 L10.000000,440.499997 L9.500000,439.999992 L9.000000,439.499987 L9.000000,438.499978 L8.500000,438.000001 L8.000000,437.499997 L8.000000,436.499988 L8.000000,435.499979 L7.500000,435.000001 L7.000000,434.499997 L7.000000,433.499988 L7.000000,432.499979 L7.000000,431.499997 L7.000000,430.499988 L7.000000,429.499979 L6.500000,429.000002 L6.000000,428.499997 L6.000000,427.499988 L6.000000,426.499979 L6.000000,425.499997 L6.000000,424.499988 L6.000000,423.499979 L6.000000,422.499998 L6.000000,421.499989 L6.000000,420.499979 L6.000000,419.499998 L6.000000,418.499989 L6.000000,417.499980 L6.000000,416.499998 L6.000000,415.499989 L6.000000,414.499980 L6.000000,413.499998 L6.000000,412.499989 L6.000000,411.499980 L6.000000,410.499998 L6.000000,409.499989 L6.000000,408.499980 L6.000000,407.499999 L6.000000,406.499989 L6.000000,405.499980 L6.000000,404.499999 L6.000000,403.499990 L6.000000,402.499981 L6.000000,401.499999 L6.000000,400.499990 L6.000000,399.499981 L6.000000,398.499999 L6.000000,397.499990 L6.000000,396.499981 L6.000000,395.499999 L6.000000,394.499990 L6.000000,393.499981 L6.000000,392.499999 L6.000000,391.499990 L6.000000,390.499981 L6.000000,389.500000 L6.000000,388.499991 L6.000000,387.499981 L6.000000,386.500000 L6.000000,385.499991 L6.000000,384.499982 L6.000000,383.500000 L6.000000,382.499991 L6.000000,381.499982 L6.000000,380.500000 L6.000000,379.499991 L6.000000,378.499982 L6.000000,377.500000 L6.000000,376.499991 L6.000000,375.499982 L6.000000,374.500000 L6.000000,373.499991 L6.000000,372.499982 L6.000000,371.500001 L6.000000,370.499992 L6.000000,369.499983 L6.000000,368.500001 L6.000000,367.499992 L6.000000,366.499983 L6.000000,365.500001 L6.000000,364.499992 L6.000000,363.499983 L6.000000,362.500001 L6.000000,361.499992 L6.000000,360.499983 L6.000000,359.500001 L6.000000,358.499992 L6.000000,357.499983 L6.000000,356.500002 L6.000000,355.499992 L6.000000,354.499983 L6.000000,353.500002 L6.000000,352.499993 L6.000000,351.499984 L6.000000,350.500002 L6.000000,349.499993 L6.000000,348.499984 L6.000000,347.500002 L6.000000,346.499993 L6.000000,345.499984 L6.000000,344.500002 L6.000000,343.499993 L6.000000,342.499984 L6.000000,341.500002 L6.000000,340.499993 L6.000000,339.499984 L6.000000,338.500003 L6.000000,337.499994 L6.000000,336.499985 L6.000000,335.500003 L6.000000,334.499994 L6.000000,333.499985 L6.000000,332.500003 L6.000000,331.499994 L6.000000,330.499985 L6.000000,329.500003 L6.000000,328.499994 L6.000000,327.499985 L6.000000,326.500003 L6.000000,325.499994 L6.000000,324.499985 L6.000000,323.500004 L6.000000,322.499994 L6.000000,321.499985 L6.000000,320.500004 L6.000000,319.499995 L6.000000,318.499986 L6.000000,317.500004 L6.000000,316.499995 L6.000000,315.499986 L6.000000,314.500004 L6.000000,313.499995 L6.000000,312.499986 L6.000000,311.500004 L6.000000,310.499995 L6.000000,309.499986 L6.000000,308.500004 L6.000000,307.499995 L6.000000,306.499986 L6.000000,305.500005 L6.000000,304.499996 L6.000000,303.499986 L6.000000,302.500005 L6.000000,301.499996 L6.000000,300.499987 L6.000000,299.500005 L6.000000,298.499996 L6.000000,297.499987 L6.000000,296.500005 L6.000000,295.499996 L6.000000,294.499987 L6.000000,293.500005 L6.000000,292.499996 L6.000000,291.499987 L6.000000,290.500005 L6.000000,289.499996 L6.000000,288.499987 L6.000000,287.500006 L6.000000,286.499997 L6.000000,285.499988 L6.000000,284.500006 L6.000000,283.499997 L6.000000,282.499988 L6.000000,281.500006 L6.000000,280.499997 L6.000000,279.499988 L6.000000,278.500006 L6.000000,277.499997 L6.000000,276.499988 L6.000000,275.500006 L6.000000,274.499997 L6.000000,273.499988 L6.000000,272.500007 L6.000000,271.499997 L6.000000,270.499988 L6.000000,269.500007 L6.000000,268.499998 L6.000000,267.499989 L6.000000,266.500007 L6.000000,265.499998 L6.000000,264.499989 L6.000000,263.500007 L6.000000,262.499998 L6.000000,261.499989 L6.000000,260.500007 L6.000000,259.499998 L6.000000,258.499989 L6.000000,257.500007 L6.000000,256.499998 L6.000000,255.499989 L6.000000,254.499980 L6.000000,253.499999 L6.000000,252.499990 L6.000000,251.499980 L6.000000,250.499999 L6.000000,249.499990 L6.000000,248.499981 L6.000000,247.499999 L6.000000,246.499990 L6.000000,245.499981 L6.000000,244.499999 L6.000000,243.499990 L6.000000,242.499981 L6.000000,241.499999 L6.000000,240.499990 L6.000000,239.499981 L6.000000,238.499999 L6.000000,237.499990 L6.000000,236.499981 L6.000000,235.500000 L6.000000,234.499991 L6.000000,233.499982 L6.000000,232.500000 L6.000000,231.499991 L6.000000,230.499982 L6.000000,229.500000 L6.000000,228.499991 L6.000000,227.499982 L6.000000,226.500000 L6.000000,225.499991 L6.000000,224.500009 L6.000000,223.500000 L6.000000,222.499991 L6.000000,221.499982 L6.000000,220.500001 L6.000000,219.499991 L6.000000,218.500010 L6.000000,217.500001 L6.000000,216.499992 L6.000000,215.499983 L6.000000,214.500001 L6.000000,213.499992 L6.000000,212.500010 L6.000000,211.500001 L6.000000,210.499992 L6.000000,209.499983 L6.000000,208.500001 L6.000000,207.499992 L6.000000,206.500010 L6.000000,205.500001 L6.000000,204.499992 L6.000000,203.499983 L6.000000,202.500002 L6.000000,201.499993 L6.000000,200.500011 L6.000000,199.500002 L6.000000,198.499993 L6.000000,197.499984 L6.000000,196.500002 L6.000000,195.499993 L6.000000,194.500011 L6.000000,193.500002 L6.000000,192.499993 L6.000000,191.499984 L6.000000,190.499975 L6.000000,189.499993 L6.000000,188.500012 L6.000000,187.500003 L6.000000,186.499993 L6.000000,185.499984 L6.000000,184.499975 L6.000000,183.499994 L6.000000,182.500012 L6.000000,181.500003 L6.000000,180.499994 L6.000000,179.499985 L6.000000,178.499976 L6.000000,177.499994 L6.000000,176.500012 L6.000000,175.500003 L6.000000,174.499994 L6.000000,173.499985 L6.000000,172.499976 L6.000000,171.499994 L6.000000,170.500013 L6.000000,169.500004 L6.000000,168.499995 L6.000000,167.499985 L6.000000,166.499976 L6.000000,165.499995 L6.000000,164.500013 L6.000000,163.500004 L6.000000,162.499995 L6.000000,161.499986 L6.000000,160.499977 L6.000000,159.499995 L6.000000,158.500013 L6.000000,157.500004 L6.000000,156.499995 L6.000000,155.499986 L6.000000,154.499977 L6.000000,153.499995 L6.000000,152.500014 L6.000000,151.500005 L6.000000,150.499996 L6.000000,149.499987 L6.000000,148.499977 L6.000000,147.499996 L6.000000,146.500014 L6.000000,145.500005 L6.000000,144.499996 L6.000000,143.499987 L6.000000,142.499978 L6.000000,141.499996 L6.000000,140.500014 L6.000000,139.500005 L6.000000,138.499996 L6.000000,137.499987 L6.000000,136.499978 L6.000000,135.499996 L6.000000,134.500015 L6.000000,133.500006 L6.000000,132.499997 L6.000000,131.499988 L6.000000,130.499979 L6.000000,129.499997 L6.000000,128.500015 L6.000000,127.500006 L6.000000,126.499997 L6.000000,125.499988 L6.000000,124.499979 L6.000000,123.499997 L6.000000,122.500015 L6.000000,121.500006 L6.000000,120.499997 L6.000000,119.499988 L6.000000,118.499979 L6.000000,117.499998 L6.000000,116.500016 L6.000000,115.500007 L6.000000,114.499998 L6.000000,113.499989 L6.000000,112.500007 L6.000000,111.499998 L6.000000,110.499989 L6.000000,109.500007 L6.000000,108.499998 L6.000000,107.499989 L6.000000,106.500007 L6.000000,105.499998 L6.000000,104.499989 L6.000000,103.500008 L6.000000,102.499998 L6.000000,101.499989 L6.000000,100.500008 L6.000000,99.499999 L6.000000,98.499990 L6.000000,97.500008 L6.000000,96.499999 L6.000000,95.499990 L6.000000,94.499981 L6.000000,93.499999 L6.000000,92.499990 L6.000000,91.500008 L6.000000,90.499999 L6.000000,89.499990 L6.000000,88.499981 L6.000000,87.499999 L6.000000,86.499990 L6.000000,85.500009 L6.000000,84.500000 L6.000000,83.499990 L6.000000,82.499981 L6.000000,81.500000 L6.000000,80.499991 L6.000000,79.500009 L6.000000,78.500000 L6.000000,77.499991 L6.000000,76.499982 L6.000000,75.500000 L6.000000,74.499991 L6.000000,73.500009 L6.000000,72.500000 L6.000000,71.499991 L6.000000,70.499982 L6.000000,69.500000 L6.000000,68.499991 L6.000000,67.500010 L6.000000,66.500001 L6.000000,65.499992 L6.000000,64.499982 L6.000000,63.500001 L6.000000,62.499992 L6.500000,62.000015 L7.000000,61.500010 L7.000000,60.500001 L7.000000,59.499992 L7.000000,58.499983 L7.000000,57.500001 L7.500000,56.999997 L8.000000,56.499992 L8.000000,55.500010 L8.000000,54.500001 L8.500000,53.999997 L9.000000,53.499992 L9.000000,52.500011 L9.500000,52.000006 L10.000000,51.500001 L10.000000,50.499992 L10.500000,49.999988 L11.000000,49.500011 L11.000000,48.500002 L11.500000,47.999997 L12.000000,47.499993 L12.500000,46.999988 L13.000000,46.499984 L13.500000,46.000006 L13.999999,45.500002 L14.499999,44.999997 L14.999999,44.499993 L15.500000,43.999988 L16.000000,43.500011 L16.500000,43.000007 L17.000000,42.500002 L17.500000,41.999997 L18.000000,41.499993 L18.499999,40.999988 L19.500000,40.999988 L20.000000,40.499984 L20.500000,40.000007 L21.000000,39.500002 L21.500000,38.999998 L22.499999,38.999998 L22.999999,38.499993 L23.500000,37.999989 L24.500000,37.999989 L25.500000,37.999989 L26.000000,37.500011 L26.500000,37.000007 L27.500001,37.000007 L28.499998,37.000007 L29.499999,37.000007 L30.499999,37.000007 L30.999999,36.500002 L31.499999,35.999998 L32.500000,35.999998 L33.500000,35.999998 L34.500000,35.999998 L35.500001,35.999998 L36.499998,35.999998 L37.499999,35.999998 L38.499999,35.999998 L39.499999,35.999998 L40.500000,35.999998 L41.500000,35.999998 L42.500000,35.999998 L43.500001,35.999998 L44.499998,35.999998 L45.499999,35.999998 L46.499999,35.999998 L47.499999,35.999998 L48.499999,35.999998 L49.500000,35.999998 L50.500000,35.999998 L51.500000,35.999998 L52.500001,35.999998 L53.500001,35.999998 L54.500001,35.999998 L55.500002,35.999998 L56.499997,35.999998 L57.499997,35.999998 L58.499997,35.999998 L59.499998,35.999998 L60.499998,35.999998 L61.499998,35.999998 L62.499999,35.999998 L63.499999,35.999998 L64.499999,35.999998 L65.500000,35.999998 L66.500000,35.999998 L67.500000,35.999998 L68.500001,35.999998 L69.500001,35.999998 L70.500001,35.999998 L71.500002,35.999998 L72.499996,35.999998 L73.499997,35.999998 L74.499997,35.999998 L75.499997,35.999998 L76.499998,35.999998 L77.499998,35.999998 L78.499998,35.999998 L79.499999,35.999998 L80.499999,35.999998 L81.499999,35.999998 L82.500000,35.999998 L83.500000,35.999998 L84.500000,35.999998 L85.500001,35.999998 L86.500001,35.999998 L87.500001,35.999998 L88.499996,35.999998 L89.499997,35.999998 L90.499997,35.999998 L91.499997,35.999998 L92.500003,35.999998 L93.500003,35.999998 L94.500004,35.999998 L95.500004,35.999998 L96.499993,35.999998 L97.499994,35.999998 L98.499994,35.999998 L99.499994,35.999998 L100.499995,35.999998 L101.499995,35.999998 L102.499995,35.999998 L103.499996,35.999998 L104.499996,35.999998 L105.499996,35.999998 L106.499997,35.999998 L107.499997,35.999998 L108.499997,35.999998 L109.000003,36.500002 L109.000003,37.500011 L109.000003,38.499993 L109.000003,39.500002 L109.000003,40.499984 L109.000003,41.499993 L109.000003,42.500002 L109.000003,43.500011 L109.000003,44.499993 L109.000003,45.500002 L109.000003,46.499984 L109.000003,47.499993 L109.000003,48.500002 L109.000003,49.500011 L109.000003,50.499992 L109.000003,51.500001 L109.000003,52.500011 L109.000003,53.499992 L108.499997,53.999997 L108.000003,54.500001 L108.000003,55.500010 L108.000003,56.499992 L108.000003,57.500001 L107.499997,58.000006 L107.000002,58.499983 L107.000002,59.499992 L107.000002,60.500001 L106.499997,61.000005 L106.000002,61.500010 L106.000002,62.499992 L105.499996,62.999996 L105.000002,63.500001 L104.499996,64.000005 L104.000001,64.499982 L103.499996,64.999987 L103.000001,65.499992 L102.499995,65.999996 L102.000001,66.500001 L101.499995,67.000005 L100.499995,67.000005 L100.000000,67.500010 L99.499994,68.000014 L99.000000,68.499991 L98.499994,68.999996 L97.499994,68.999996 L96.499993,68.999996 L95.999999,69.500000 L95.500004,70.000005 L94.500004,70.000005 L93.500003,70.000005 L92.500003,70.000005 L91.499997,70.000005 L90.999997,70.499982 L90.499997,70.999987 L89.499997,70.999987 L88.499996,70.999987 L87.500001,70.999987 L86.500001,70.999987 L85.500001,70.999987 L84.500000,70.999987 L83.500000,70.999987 L82.500000,70.999987 L81.499999,70.999987 L80.499999,70.999987 L79.499999,70.999987 L78.499998,70.999987 L77.499998,70.999987 L76.499998,70.999987 L75.499997,70.999987 L74.499997,70.999987 L73.499997,70.999987 L72.499996,70.999987 L71.500002,70.999987 L70.500001,70.999987 L69.500001,70.999987 L68.500001,70.999987 L67.500000,70.999987 L66.500000,70.999987 L65.500000,70.999987 L64.499999,70.999987 L63.499999,70.999987 L62.499999,70.999987 L61.499998,70.999987 L60.499998,70.999987 L59.499998,70.999987 L58.499997,70.999987 L57.499997,70.999987 L56.499997,70.999987 L55.500002,70.999987 L54.500001,70.999987 L53.500001,70.999987 L52.500001,70.999987 L51.500000,70.999987 L50.500000,70.999987 L49.500000,70.999987 L48.499999,70.999987 L47.999999,71.499991 L47.499999,71.999996 L46.499999,71.999996 L45.999999,72.500000 L45.499999,73.000005 L44.999998,73.500009 L44.499998,74.000014 L43.999998,74.499991 L43.500001,74.999996 L43.000000,75.500000 L42.500000,76.000005 L42.000000,76.499982 L42.000000,77.499991 L41.500000,77.999995 L41.000000,78.500000 L41.000000,79.500009 L40.500000,80.000013 L39.999999,80.499991 L39.999999,81.500000 L39.999999,82.499981 L39.999999,83.499990 L39.999999,84.500000 L39.999999,85.500009 L39.999999,86.499990 L39.999999,87.499999 L39.999999,88.499981 L39.999999,89.499990 L39.999999,90.499999 L39.999999,91.500008 L39.999999,92.499990 L39.999999,93.499999 L39.999999,94.499981 L39.999999,95.499990 L39.999999,96.499999 L39.999999,97.500008 L39.999999,98.499990 L39.999999,99.499999 L39.999999,100.500008 L39.999999,101.499989 L39.999999,102.499998 L39.999999,103.500008 L39.999999,104.499989 L39.999999,105.499998 L39.999999,106.500007 L39.999999,107.499989 L39.999999,108.499998 L39.999999,109.500007 L39.999999,110.499989 L39.999999,111.499998 L39.999999,112.500007 L39.999999,113.499989 L39.999999,114.499998 L39.999999,115.500007 L39.999999,116.500016 L39.999999,117.499998 L39.999999,118.499979 L39.999999,119.499988 L39.999999,120.499997 L39.999999,121.500006 L39.999999,122.500015 L39.999999,123.499997 L39.999999,124.499979 L39.999999,125.499988 L39.999999,126.499997 L39.999999,127.500006 L39.999999,128.500015 L39.999999,129.499997 L39.999999,130.499979 L39.999999,131.499988 L39.999999,132.499997 L39.999999,133.500006 L39.999999,134.500015 L39.999999,135.499996 L39.999999,136.499978 L39.999999,137.499987 L39.999999,138.499996 L39.999999,139.500005 L39.999999,140.500014 L39.999999,141.499996 L39.999999,142.499978 L39.999999,143.499987 L39.999999,144.499996 L39.999999,145.500005 L39.999999,146.500014 L39.999999,147.499996 L39.999999,148.499977 L39.999999,149.499987 L39.999999,150.499996 L39.999999,151.500005 L39.999999,152.500014 L39.999999,153.499995 L39.999999,154.499977 L39.999999,155.499986 L39.999999,156.499995 L39.999999,157.500004 L39.999999,158.500013 L39.999999,159.499995 L39.999999,160.499977 L39.999999,161.499986 L39.999999,162.499995 L39.999999,163.500004 L39.999999,164.500013 L39.999999,165.499995 L39.999999,166.499976 L39.999999,167.499985 L39.999999,168.499995 L39.999999,169.500004 L39.999999,170.500013 L39.999999,171.499994 L39.999999,172.499976 L39.999999,173.499985 L39.999999,174.499994 L39.999999,175.500003 L39.999999,176.500012 L39.999999,177.499994 L39.999999,178.499976 L39.999999,179.499985 L39.999999,180.499994 L39.999999,181.500003 L39.999999,182.500012 L39.999999,183.499994 L39.999999,184.499975 L39.999999,185.499984 L39.999999,186.499993 L39.999999,187.500003 L39.999999,188.500012 L39.999999,189.499993 L39.999999,190.499975 L39.999999,191.499984 L39.999999,192.499993 L39.999999,193.500002 L39.999999,194.500011 L39.999999,195.499993 L39.999999,196.500002 L39.999999,197.499984 L39.999999,198.499993 L39.999999,199.500002 L39.999999,200.500011 L39.999999,201.499993 L39.999999,202.500002 L39.999999,203.499983 L39.999999,204.499992 L39.999999,205.500001 L39.999999,206.500010 L39.999999,207.499992 L39.999999,208.500001 L39.999999,209.499983 L39.999999,210.499992 L39.999999,211.500001 L39.999999,212.500010 L39.999999,213.499992 L39.999999,214.500001 L39.999999,215.499983 L39.999999,216.499992 L39.999999,217.500001 L39.999999,218.500010 L39.999999,219.499991 L39.999999,220.500001 L39.999999,221.499982 L39.999999,222.499991 L39.999999,223.500000 L39.999999,224.500009 L39.999999,225.499991 L39.999999,226.500000 L39.999999,227.499982 L39.999999,228.499991 L39.999999,229.500000 L39.999999,230.499982 L39.999999,231.499991 L39.999999,232.500000 L39.999999,233.499982 L39.999999,234.499991 L39.999999,235.500000 L39.999999,236.499981 L39.999999,237.499990 L39.999999,238.499999 L39.999999,239.499981 L39.999999,240.499990 L39.999999,241.499999 L39.999999,242.499981 L39.999999,243.499990 L39.999999,244.499999 L39.999999,245.499981 L39.999999,246.499990 L39.999999,247.499999 L39.999999,248.499981 L39.999999,249.499990 L39.999999,250.499999 L39.999999,251.499980 L39.999999,252.499990 L39.999999,253.499999 L39.999999,254.499980 L39.999999,255.499989 L39.999999,256.499998 L39.999999,257.500007 L39.999999,258.499989 L39.999999,259.499998 L39.999999,260.500007 L39.999999,261.499989 L39.999999,262.499998 L39.999999,263.500007 L39.999999,264.499989 L39.999999,265.499998 L39.999999,266.500007 L39.999999,267.499989 L39.999999,268.499998 L39.999999,269.500007 L39.999999,270.499988 L39.999999,271.499997 L39.999999,272.500007 L39.999999,273.499988 L39.999999,274.499997 L39.999999,275.500006 L39.999999,276.499988 L39.999999,277.499997 L39.999999,278.500006 L39.999999,279.499988 L39.999999,280.499997 L39.999999,281.500006 L39.999999,282.499988 L39.999999,283.499997 L39.999999,284.500006 L39.999999,285.499988 L39.999999,286.499997 L39.999999,287.500006 L39.999999,288.499987 L39.999999,289.499996 L39.999999,290.500005 L39.999999,291.499987 L39.999999,292.499996 L39.999999,293.500005 L39.999999,294.499987 L39.999999,295.499996 L39.999999,296.500005 L39.999999,297.499987 L39.999999,298.499996 L39.999999,299.500005 L39.999999,300.499987 L39.999999,301.499996 L39.999999,302.500005 L39.999999,303.499986 L39.999999,304.499996 L39.999999,305.500005 L39.999999,306.499986 L39.999999,307.499995 L39.999999,308.500004 L39.999999,309.499986 L39.999999,310.499995 L39.999999,311.500004 L39.999999,312.499986 L39.999999,313.499995 L39.999999,314.500004 L39.999999,315.499986 L39.999999,316.499995 L39.999999,317.500004 L39.999999,318.499986 L39.999999,319.499995 L39.999999,320.500004 L39.999999,321.499985 L39.999999,322.499994 L39.999999,323.500004 L39.999999,324.499985 L39.999999,325.499994 L39.999999,326.500003 L39.999999,327.499985 L39.999999,328.499994 L39.999999,329.500003 L39.999999,330.499985 L39.999999,331.499994 L39.999999,332.500003 L39.999999,333.499985 L39.999999,334.499994 L39.999999,335.500003 L39.999999,336.499985 L39.999999,337.499994 L39.999999,338.500003 L39.999999,339.499984 L39.999999,340.499993 L39.999999,341.500002 L39.999999,342.499984 L39.999999,343.499993 L39.999999,344.500002 L39.999999,345.499984 L39.999999,346.499993 L39.999999,347.500002 L39.999999,348.499984 L39.999999,349.499993 L39.999999,350.500002 L39.999999,351.499984 L39.999999,352.499993 L39.999999,353.500002 L39.999999,354.499983 L39.999999,355.499992 L39.999999,356.500002 L39.999999,357.499983 L39.999999,358.499992 L39.999999,359.500001 L39.999999,360.499983 L39.999999,361.499992 L39.999999,362.500001 L39.999999,363.499983 L39.999999,364.499992 L39.999999,365.500001 L39.999999,366.499983 L39.999999,367.499992 L39.999999,368.500001 L39.999999,369.499983 L39.999999,370.499992 L39.999999,371.500001 L39.999999,372.499982 L39.999999,373.499991 L39.999999,374.500000 L39.999999,375.499982 L39.999999,376.499991 L39.999999,377.500000 L39.999999,378.499982 L39.999999,379.499991 L39.999999,380.500000 L39.999999,381.499982 L39.999999,382.499991 L39.999999,383.500000 L39.999999,384.499982 L39.999999,385.499991 L39.999999,386.500000 L39.999999,387.499981 L39.999999,388.499991 L39.999999,389.500000 L39.999999,390.499981 L39.999999,391.499990 L39.999999,392.499999 L39.999999,393.499981 L39.999999,394.499990 L39.999999,395.499999 L39.999999,396.499981 L39.999999,397.499990 L39.999999,398.499999 L39.999999,399.499981 L39.999999,400.499990 L39.999999,401.499999 L39.999999,402.499981 L39.999999,403.499990 L39.999999,404.499999 L39.999999,405.499980 L39.999999,406.499989 L39.999999,407.499999 L39.999999,408.499980 L39.999999,409.499989 L39.999999,410.499998 L39.999999,411.499980 L40.500000,411.999985 L41.000000,412.499989 L41.000000,413.499998 L41.500000,414.000003 L42.000000,414.499980 L42.000000,415.499989 L42.500000,415.999993 L43.000000,416.499998 L43.500001,417.000003 L43.999998,417.499980 L44.499998,417.999984 L44.999998,418.499989 L45.499999,418.999993 L45.999999,419.499998 L46.499999,420.000002 L47.499999,420.000002 L47.999999,420.499979 L48.499999,420.999984 L49.500000,420.999984 L50.500000,420.999984 L51.500000,420.999984 L52.500001,420.999984 L53.500001,420.999984 L54.500001,420.999984 L55.500002,420.999984 L56.499997,420.999984 L57.499997,420.999984 L58.499997,420.999984 L59.499998,420.999984 L60.499998,420.999984 L61.499998,420.999984 L62.499999,420.999984 L63.499999,420.999984 L64.499999,420.999984 L65.500000,420.999984 L66.500000,420.999984 L67.500000,420.999984 L68.500001,420.999984 L69.500001,420.999984 L70.500001,420.999984 L71.500002,420.999984 L72.499996,420.999984 L73.499997,420.999984 L74.499997,420.999984 L75.499997,420.999984 L76.499998,420.999984 L77.499998,420.999984 L78.499998,420.999984 L79.499999,420.999984 L80.499999,420.999984 L81.499999,420.999984 L82.500000,420.999984 L83.500000,420.999984 L84.500000,420.999984 L85.500001,420.999984 L86.500001,420.999984 L87.500001,420.999984 L88.499996,420.999984 L89.499997,420.999984 L90.499997,420.999984 L91.499997,420.999984 L92.500003,420.999984 L93.500003,420.999984 L94.500004,420.999984 L95.500004,420.999984 L96.499993,420.999984 L97.499994,420.999984 L98.499994,420.999984 L99.499994,420.999984 L100.499995,420.999984 L101.499995,420.999984 L102.499995,420.999984 L103.499996,420.999984 L104.499996,420.999984 L105.499996,420.999984 L106.499997,420.999984 L107.499997,420.999984 L108.499997,420.999984 L109.499998,420.999984 L110.499998,420.999984 L111.499998,420.999984 L112.499999,420.999984 L113.499999,420.999984 L114.499999,420.999984 L115.500000,420.999984 L116.500000,420.999984 L117.500000,420.999984 L118.500001,420.999984 L119.500001,420.999984 L120.500001,420.999984 L121.500002,420.999984 L122.500002,420.999984 L123.500002,420.999984 L124.500003,420.999984 L125.500003,420.999984 L126.500003,420.999984 L127.500004,420.999984 L128.499993,420.999984 L129.499993,420.999984 L130.499994,420.999984 L131.499994,420.999984 L132.499994,420.999984 L133.499995,420.999984 L134.499995,420.999984 L135.499995,420.999984 L136.499996,420.999984 L137.499996,420.999984 L138.499996,420.999984 L139.499997,420.999984 L140.499997,420.999984 L141.499997,420.999984 L142.499997,420.999984 L143.499998,420.999984 L144.499998,420.999984 L145.499998,420.999984 L146.499999,420.999984 L147.499999,420.999984 L148.499999,420.999984 L149.500000,420.999984 L150.500000,420.999984 L151.500000,420.999984 L152.500001,420.999984 L153.500001,420.999984 L154.500001,420.999984 L155.500002,420.999984 L156.500002,420.999984 L157.500002,420.999984 L158.500003,420.999984 L159.500003,420.999984 L160.499992,420.999984 L161.499993,420.999984 L162.499993,420.999984 L163.499993,420.999984 L164.499994,420.999984 L165.499994,420.999984 L166.499994,420.999984 L167.499995,420.999984 L168.499995,420.999984 L169.499995,420.999984 L170.499996,420.999984 L171.499996,420.999984 L172.499996,420.999984 L173.499997,420.999984 L174.499997,420.999984 L175.499997,420.999984 L176.499998,420.999984 L177.499998,420.999984 L178.499998,420.999984 L179.499999,420.999984 L180.499999,420.999984 L181.499999,420.999984 L182.500000,420.999984 L183.500000,420.999984 L184.499989,420.999984 L185.500001,420.999984 L186.499990,420.999984 L187.500001,420.999984 L188.499991,420.999984 L189.500002,420.999984 L190.499991,420.999984 L191.500003,420.999984 L192.499992,420.999984 L193.500003,420.999984 L194.499993,420.999984 L195.500004,420.999984 L196.499993,420.999984 L197.500005,420.999984 L198.499994,420.999984 L199.500005,420.999984 L200.499995,420.999984 L201.500006,420.999984 L202.499995,420.999984 L203.500007,420.999984 L204.499996,420.999984 L205.500007,420.999984 L206.499997,420.999984 L207.500008,420.999984 L208.499997,420.999984 L209.499987,420.999984 L210.499998,420.999984 L211.499987,420.999984 L212.499999,420.999984 L213.499988,420.999984 L214.499999,420.999984 L215.499989,420.999984 L216.500000,420.999984 L217.499989,420.999984 L218.500001,420.999984 L219.499990,420.999984 L220.500001,420.999984 L221.499991,420.999984 L222.500002,420.999984 L223.499991,420.999984 L224.500003,420.999984 L225.499992,420.999984 L226.500003,420.999984 L227.499993,420.999984 L228.500004,420.999984 L229.499993,420.999984 L230.500004,420.999984 L231.499994,420.999984 L232.500005,420.999984 L233.499995,420.999984 L234.500006,420.999984 L235.499995,420.999984 L236.500006,420.999984 L237.499996,420.999984 L238.500007,420.999984 L239.499996,420.999984 L240.499986,420.999984 L241.499997,420.999984 L242.499987,420.999984 L243.499998,420.999984 L244.499987,420.999984 L245.499998,420.999984 L246.499988,420.999984 L247.499999,420.999984 L248.499988,420.999984 L249.500000,420.999984 L250.499989,420.999984 L251.500000,420.999984 L252.499990,420.999984 L253.500001,420.999984 L254.499990,420.999984 L255.500002,420.999984 L256.499991,420.999984 L257.500002,420.999984 L258.499992,420.999984 L259.500003,420.999984 L260.499992,420.999984 L261.500004,420.999984 L262.499993,420.999984 L263.500004,420.999984 L264.499994,420.999984 L265.500005,420.999984 L266.499994,420.999984 L267.500006,420.999984 L268.499995,420.999984 L269.500006,420.999984 L270.499996,420.999984 L271.500007,420.999984 L272.499996,420.999984 L273.499986,420.999984 L274.499997,420.999984 L275.499986,420.999984 L276.499998,420.999984 L277.499987,420.999984 L278.499998,420.999984 L279.499988,420.999984 L280.499999,420.999984 L281.499988,420.999984 L282.500000,420.999984 L283.499989,420.999984 L284.500000,420.999984 L285.499990,420.999984 L286.500001,420.999984 L287.499990,420.999984 L288.500002,420.999984 L289.499991,420.999984 L290.500002,420.999984 L291.499992,420.999984 L292.500003,420.999984 L293.499992,420.999984 L294.500004,420.999984 L295.499993,420.999984 L296.500004,420.999984 L297.499994,420.999984 L298.500005,420.999984 L299.499994,420.999984 L300.500006,420.999984 L301.499995,420.999984 L302.500006,420.999984 L303.499996,420.999984 L304.499985,420.999984 L305.499996,420.999984 L306.499986,420.999984 L307.499997,420.999984 L308.499986,420.999984 L309.499998,420.999984 L310.499987,420.999984 L311.499998,420.999984 L312.499988,420.999984 L313.499999,420.999984 L314.499988,420.999984 L315.500000,420.999984 L316.499989,420.999984 L317.000005,420.499979 L317.500000,420.000002 L318.499990,420.000002 L319.000006,419.499998 L319.500001,418.999993 L320.499990,418.999993 L320.999985,418.499989 L321.500001,417.999984 L321.999996,417.499980 L322.499991,417.000003 L322.999986,416.499998 L323.500002,415.999993 L323.999997,415.499989 L323.999997,414.499980 L324.499992,414.000003 L324.999986,413.499998 L324.999986,412.499989 L325.500003,411.999985 L325.999997,411.499980 L325.999997,410.499998 L325.999997,409.499989 L325.999997,408.499980 L325.999997,407.499999 L325.999997,406.499989 L325.999997,405.499980 L325.999997,404.499999 L325.999997,403.499990 L325.999997,402.499981 L325.999997,401.499999 L325.999997,400.499990 L325.999997,399.499981 L325.999997,398.499999 L325.999997,397.499990 L325.999997,396.499981 L325.999997,395.499999 L325.999997,394.499990 L325.999997,393.499981 L325.999997,392.499999 L325.999997,391.499990 L325.999997,390.499981 L325.999997,389.500000 L325.999997,388.499991 L325.999997,387.499981 L325.999997,386.500000 L325.999997,385.499991 L325.999997,384.499982 L325.999997,383.500000 L325.999997,382.499991 L325.999997,381.499982 L325.999997,380.500000 L325.999997,379.499991 L325.999997,378.499982 L325.999997,377.500000 L325.999997,376.499991 L325.999997,375.499982 L325.999997,374.500000 L325.999997,373.499991 L325.999997,372.499982 L325.999997,371.500001 L325.999997,370.499992 L325.999997,369.499983 L325.999997,368.500001 L325.999997,367.499992 L325.999997,366.499983 L325.999997,365.500001 L325.999997,364.499992 L325.999997,363.499983 L325.999997,362.500001 L325.999997,361.499992 L325.999997,360.499983 L325.999997,359.500001 L325.999997,358.499992 L325.999997,357.499983 L325.999997,356.500002 L325.999997,355.499992 L325.999997,354.499983 L325.999997,353.500002 L325.999997,352.499993 L325.999997,351.499984 L325.999997,350.500002 L325.999997,349.499993 L325.999997,348.499984 L325.999997,347.500002 L325.999997,346.499993 L325.999997,345.499984 L325.999997,344.500002 L325.999997,343.499993 L325.999997,342.499984 L325.999997,341.500002 L325.999997,340.499993 L325.999997,339.499984 L325.999997,338.500003 L325.999997,337.499994 L325.999997,336.499985 L325.999997,335.500003 L325.999997,334.499994 L325.999997,333.499985 L325.999997,332.500003 L325.999997,331.499994 L325.999997,330.499985 L325.999997,329.500003 L325.999997,328.499994 L325.999997,327.499985 L325.999997,326.500003 L325.999997,325.499994 L325.999997,324.499985 L325.999997,323.500004 L325.999997,322.499994 L325.999997,321.499985 L325.999997,320.500004 L325.999997,319.499995 L325.999997,318.499986 L325.999997,317.500004 L325.999997,316.499995 L325.999997,315.499986 L325.999997,314.500004 L325.999997,313.499995 L325.999997,312.499986 L325.999997,311.500004 L325.999997,310.499995 L325.999997,309.499986 L325.999997,308.500004 L325.999997,307.499995 L325.999997,306.499986 L325.999997,305.500005 L325.999997,304.499996 L325.999997,303.499986 L325.999997,302.500005 L325.999997,301.499996 L325.999997,300.499987 L325.999997,299.500005 L325.999997,298.499996 L325.999997,297.499987 L325.999997,296.500005 L325.999997,295.499996 L325.999997,294.499987 L325.999997,293.500005 L325.999997,292.499996 L325.999997,291.499987 L325.999997,290.500005 L325.999997,289.499996 L325.999997,288.499987 L325.999997,287.500006 L325.999997,286.499997 L325.999997,285.499988 L325.999997,284.500006 L325.999997,283.499997 L325.999997,282.499988 L325.999997,281.500006 L325.999997,280.499997 L325.999997,279.499988 L325.999997,278.500006 L325.999997,277.499997 L325.999997,276.499988 L325.999997,275.500006 L325.999997,274.499997 L325.999997,273.499988 L325.999997,272.500007 L325.999997,271.499997 L325.999997,270.499988 L325.999997,269.500007 L325.999997,268.499998 L325.999997,267.499989 L325.999997,266.500007 L325.999997,265.499998 L325.999997,264.499989 L325.999997,263.500007 L325.999997,262.499998 L325.999997,261.499989 L325.999997,260.500007 L325.999997,259.499998 L325.999997,258.499989 L325.999997,257.500007 L325.999997,256.499998 L325.999997,255.499989 L325.999997,254.499980 L325.999997,253.499999 L325.999997,252.499990 L325.999997,251.499980 L325.999997,250.499999 L325.999997,249.499990 L325.999997,248.499981 L325.999997,247.499999 L325.999997,246.499990 L325.999997,245.499981 L325.999997,244.499999 L325.999997,243.499990 L325.999997,242.499981 L325.999997,241.499999 L325.999997,240.499990 L325.999997,239.499981 L325.999997,238.499999 L325.999997,237.499990 L325.999997,236.499981 L325.999997,235.500000 L325.999997,234.499991 L325.999997,233.499982 L325.999997,232.500000 L325.999997,231.499991 L325.999997,230.499982 L325.999997,229.500000 L325.999997,228.499991 L325.999997,227.499982 L325.999997,226.500000 L325.999997,225.499991 L325.999997,224.500009 L325.999997,223.500000 L325.999997,222.499991 L325.999997,221.499982 L325.999997,220.500001 L325.999997,219.499991 L325.999997,218.500010 L325.999997,217.500001 L325.999997,216.499992 L325.999997,215.499983 L325.999997,214.500001 L325.999997,213.499992 L325.999997,212.500010 L325.999997,211.500001 L325.999997,210.499992 L325.999997,209.499983 L325.999997,208.500001 L325.999997,207.499992 L325.999997,206.500010 L325.999997,205.500001 L325.999997,204.499992 L325.999997,203.499983 L325.999997,202.500002 L325.999997,201.499993 L325.999997,200.500011 L325.999997,199.500002 L325.999997,198.499993 L325.999997,197.499984 L325.999997,196.500002 L325.999997,195.499993 L325.999997,194.500011 L325.999997,193.500002 L325.999997,192.499993 L325.999997,191.499984 L325.999997,190.499975 L325.999997,189.499993 L325.999997,188.500012 L325.999997,187.500003 L325.999997,186.499993 L325.999997,185.499984 L325.999997,184.499975 L325.999997,183.499994 L325.999997,182.500012 L325.999997,181.500003 L325.999997,180.499994 L325.999997,179.499985 L325.999997,178.499976 L325.999997,177.499994 L325.999997,176.500012 L325.999997,175.500003 L325.999997,174.499994 L325.999997,173.499985 L325.999997,172.499976 L325.999997,171.499994 L325.999997,170.500013 L325.999997,169.500004 L325.999997,168.499995 L325.999997,167.499985 L325.999997,166.499976 L325.999997,165.499995 L325.999997,164.500013 L325.999997,163.500004 L325.999997,162.499995 L325.999997,161.499986 L325.999997,160.499977 L325.999997,159.499995 L325.999997,158.500013 L325.999997,157.500004 L325.999997,156.499995 L325.999997,155.499986 L325.999997,154.499977 L325.999997,153.499995 L325.999997,152.500014 L325.999997,151.500005 L325.999997,150.499996 L325.999997,149.499987 L325.999997,148.499977 L325.999997,147.499996 L325.999997,146.500014 L325.999997,145.500005 L325.999997,144.499996 L325.999997,143.499987 L325.999997,142.499978 L325.999997,141.499996 L325.999997,140.500014 L325.999997,139.500005 L325.999997,138.499996 L325.999997,137.499987 L325.999997,136.499978 L325.999997,135.499996 L325.999997,134.500015 L325.999997,133.500006 L325.999997,132.499997 L325.999997,131.499988 L325.999997,130.499979 L325.999997,129.499997 L325.999997,128.500015 L325.999997,127.500006 L325.999997,126.499997 L325.999997,125.499988 L325.999997,124.499979 L325.999997,123.499997 L325.999997,122.500015 L325.999997,121.500006 L325.999997,120.499997 L325.999997,119.499988 L325.999997,118.499979 L325.999997,117.499998 L325.999997,116.500016 L325.999997,115.500007 L325.999997,114.499998 L325.999997,113.499989 L325.999997,112.500007 L325.999997,111.499998 L325.999997,110.499989 L325.999997,109.500007 L325.999997,108.499998 L325.999997,107.499989 L325.999997,106.500007 L325.999997,105.499998 L325.999997,104.499989 L325.999997,103.500008 L325.999997,102.499998 L325.999997,101.499989 L325.999997,100.500008 L325.999997,99.499999 L325.999997,98.499990 L325.999997,97.500008 L325.999997,96.499999 L325.999997,95.499990 L325.999997,94.499981 L325.999997,93.499999 L325.999997,92.499990 L325.999997,91.500008 L325.999997,90.499999 L325.999997,89.499990 L325.999997,88.499981 L325.999997,87.499999 L325.999997,86.499990 L325.999997,85.500009 L325.999997,84.500000 L325.999997,83.499990 L325.999997,82.499981 L325.999997,81.500000 L325.500003,80.999995 L324.999986,80.499991 L324.999986,79.500009 L324.999986,78.500000 L324.499992,77.999995 L323.999997,77.499991 L323.999997,76.499982 L323.500002,76.000005 L322.999986,75.500000 L322.499991,74.999996 L321.999996,74.499991 L321.500001,74.000014 L320.999985,73.500009 L320.499990,73.000005 L319.999996,72.500000 L319.500001,71.999996 L318.499990,71.999996 L317.999995,71.499991 L317.500000,70.999987 L316.499989,70.999987 L315.500000,70.999987 L314.499988,70.999987 L313.499999,70.999987 L312.499988,70.999987 L311.499998,70.999987 L310.499987,70.999987 L309.499998,70.999987 L308.499986,70.999987 L307.499997,70.999987 L306.499986,70.999987 L305.499996,70.999987 L304.499985,70.999987 L303.499996,70.999987 L302.500006,70.999987 L301.499995,70.999987 L300.500006,70.999987 L299.499994,70.999987 L298.500005,70.999987 L297.499994,70.999987 L296.500004,70.999987 L295.499993,70.999987 L294.500004,70.999987 L293.499992,70.999987 L292.500003,70.999987 L291.499992,70.999987 L290.500002,70.999987 L289.499991,70.999987 L288.500002,70.999987 L287.499990,70.999987 L286.500001,70.999987 L285.499990,70.999987 L284.500000,70.999987 L283.499989,70.999987 L282.500000,70.999987 L281.499988,70.999987 L280.499999,70.999987 L279.499988,70.999987 L278.499998,70.999987 L277.499987,70.999987 L276.499998,70.999987 L275.499986,70.999987 L274.999992,70.499982 L274.499997,70.000005 L273.499986,70.000005 L272.499996,70.000005 L271.500007,70.000005 L270.499996,70.000005 L270.000001,69.500000 L269.500006,68.999996 L268.499995,68.999996 L267.500006,68.999996 L266.999989,68.499991 L266.499994,68.000014 L266.000000,67.500010 L265.500005,67.000005 L264.499994,67.000005 L263.999999,66.500001 L263.500004,65.999996 L262.999988,65.499992 L262.499993,64.999987 L261.999998,64.499982 L261.500004,64.000005 L260.999987,63.500001 L260.499992,62.999996 L259.999998,62.499992 L259.999998,61.500010 L259.500003,61.000005 L258.999986,60.500001 L258.999986,59.499992 L258.499992,58.999987 L257.999997,58.499983 L257.999997,57.500001 L257.999997,56.499992 L257.999997,55.500010 L257.999997,54.500001 L257.500002,53.999997 L256.999986,53.499992 L256.999986,52.500011 L256.999986,51.500001 L256.999986,50.499992 L256.999986,49.500011 L256.999986,48.500002 L256.999986,47.499993 L256.999986,46.499984 L256.999986,45.500002 L256.999986,44.499993 L256.999986,43.500011 L256.999986,42.500002 L256.999986,41.499993 L256.999986,40.499984 L256.999986,39.500002 L256.999986,38.499993 L256.999986,37.500011 L256.999986,36.500002 L257.500002,35.999998 L258.499992,35.999998 L259.500003,35.999998 L260.499992,35.999998 L261.500004,35.999998 L262.499993,35.999998 L263.500004,35.999998 L264.499994,35.999998 L265.500005,35.999998 L266.499994,35.999998 L267.500006,35.999998 L268.499995,35.999998 L269.500006,35.999998 L270.499996,35.999998 L271.500007,35.999998 L272.499996,35.999998 L273.499986,35.999998 L274.499997,35.999998 L275.499986,35.999998 L276.499998,35.999998 L277.499987,35.999998 L278.499998,35.999998 L279.499988,35.999998 L280.499999,35.999998 L281.499988,35.999998 L282.500000,35.999998 L283.499989,35.999998 L284.500000,35.999998 L285.499990,35.999998 L286.500001,35.999998 L287.499990,35.999998 L288.500002,35.999998 L289.499991,35.999998 L290.500002,35.999998 L291.499992,35.999998 L292.500003,35.999998 L293.499992,35.999998 L294.500004,35.999998 L295.499993,35.999998 L296.500004,35.999998 L297.499994,35.999998 L298.500005,35.999998 L299.499994,35.999998 L300.500006,35.999998 L301.499995,35.999998 L302.500006,35.999998 L303.499996,35.999998 L304.499985,35.999998 L305.499996,35.999998 L306.499986,35.999998 L307.499997,35.999998 L308.499986,35.999998 L309.499998,35.999998 L310.499987,35.999998 L311.499998,35.999998 L312.499988,35.999998 L313.499999,35.999998 L314.499988,35.999998 L315.500000,35.999998 L316.499989,35.999998 L317.500000,35.999998 L318.499990,35.999998 L319.500001,35.999998 L320.499990,35.999998 L321.500001,35.999998 L322.499991,35.999998 L323.500002,35.999998 L324.499992,35.999998 L325.500003,35.999998 L326.499992,35.999998 L327.500003,35.999998 L328.499993,35.999998 L329.500004,35.999998 L330.499994,35.999998 L331.500005,35.999998 L332.499994,35.999998 L333.500005,35.999998 L334.499995,35.999998 L334.999990,36.500002 L335.500006,37.000007 L336.499995,37.000007 L337.499985,37.000007 L338.499996,37.000007 L339.499986,37.000007 L340.000002,37.500011 L340.499997,37.999989 L341.499986,37.999989 L342.499997,37.999989 L342.999992,38.499993 L343.499987,38.999998 L344.499998,38.999998 L344.999993,39.500002 L345.499987,40.000007 L346.000004,40.499984 L346.499999,40.999988 L347.499988,40.999988 L348.000005,41.499993 L348.499999,41.999997 L348.999994,42.500002 L349.499989,43.000007 L350.000005,43.500011 L350.500000,43.999988 L350.999995,44.499993 L351.499989,44.999997 L351.999984,45.500002 L352.500001,46.000006 L352.999995,46.499984 L353.499990,46.999988 L353.999985,47.499993 L354.500001,47.999997 L354.999996,48.500002 L354.999996,49.500011 L355.499991,49.999988 L355.999985,50.499992 L355.999985,51.500001 L356.500002,52.000006 L356.999997,52.500011 L356.999997,53.499992 L357.499991,53.999997 L357.999986,54.500001 L357.999986,55.500010 L357.999986,56.499992 L358.500003,56.999997 L358.999997,57.500001 L358.999997,58.499983 L358.999997,59.499992 L358.999997,60.500001 L358.999997,61.500010 L359.499992,62.000015 L359.999987,62.499992 L359.999987,63.500001 L359.999987,64.499982 L359.999987,65.499992 L359.999987,66.500001 L359.999987,67.500010 L359.999987,68.499991 L359.999987,69.500000 L359.999987,70.499982 L359.999987,71.499991 L359.999987,72.500000 L359.999987,73.500009 L359.999987,74.499991 L359.999987,75.500000 L359.999987,76.499982 L359.999987,77.499991 L359.999987,78.500000 L359.999987,79.500009 L359.999987,80.499991 L359.999987,81.500000 L359.999987,82.499981 L359.999987,83.499990 L359.999987,84.500000 L359.999987,85.500009 L359.999987,86.499990 L359.999987,87.499999 L359.999987,88.499981 L359.999987,89.499990 L359.999987,90.499999 L359.999987,91.500008 L359.999987,92.499990 L359.999987,93.499999 L359.999987,94.499981 L359.999987,95.499990 L359.999987,96.499999 L359.999987,97.500008 L359.999987,98.499990 L359.999987,99.499999 L359.999987,100.500008 L359.999987,101.499989 L359.999987,102.499998 L359.999987,103.500008 L359.999987,104.499989 L359.999987,105.499998 L359.999987,106.500007 L359.999987,107.499989 L359.999987,108.499998 L359.999987,109.500007 L359.999987,110.499989 L359.999987,111.499998 L359.999987,112.500007 L359.999987,113.499989 L359.999987,114.499998 L359.999987,115.500007 L359.999987,116.500016 L359.999987,117.499998 L359.999987,118.499979 L359.999987,119.499988 L359.999987,120.499997 L359.999987,121.500006 L359.999987,122.500015 L359.999987,123.499997 L359.999987,124.499979 L359.999987,125.499988 L359.999987,126.499997 L359.999987,127.500006 L359.999987,128.500015 L359.999987,129.499997 L359.999987,130.499979 L359.999987,131.499988 L359.999987,132.499997 L359.999987,133.500006 L359.999987,134.500015 L359.999987,135.499996 L359.999987,136.499978 L359.999987,137.499987 L359.999987,138.499996 L359.999987,139.500005 L359.999987,140.500014 L359.999987,141.499996 L359.999987,142.499978 L359.999987,143.499987 L359.999987,144.499996 L359.999987,145.500005 L359.999987,146.500014 L359.999987,147.499996 L359.999987,148.499977 L359.999987,149.499987 L359.999987,150.499996 L359.999987,151.500005 L359.999987,152.500014 L359.999987,153.499995 L359.999987,154.499977 L359.999987,155.499986 L359.999987,156.499995 L359.999987,157.500004 L359.999987,158.500013 L359.999987,159.499995 L359.999987,160.499977 L359.999987,161.499986 L359.999987,162.499995 L359.999987,163.500004 L359.999987,164.500013 L359.999987,165.499995 L359.999987,166.499976 L359.999987,167.499985 L359.999987,168.499995 L359.999987,169.500004 L359.999987,170.500013 L359.999987,171.499994 L359.999987,172.499976 L359.999987,173.499985 L359.999987,174.499994 L359.999987,175.500003 L359.999987,176.500012 L359.999987,177.499994 L359.999987,178.499976 L359.999987,179.499985 L359.999987,180.499994 L359.999987,181.500003 L359.999987,182.500012 L359.999987,183.499994 L359.999987,184.499975 L359.999987,185.499984 L359.999987,186.499993 L359.999987,187.500003 L359.999987,188.500012 L359.999987,189.499993 L359.999987,190.499975 L359.999987,191.499984 L359.999987,192.499993 L359.999987,193.500002 L359.999987,194.500011 L359.999987,195.499993 L359.999987,196.500002 L359.999987,197.499984 L359.999987,198.499993 L359.999987,199.500002 L359.999987,200.500011 L359.999987,201.499993 L359.999987,202.500002 L359.999987,203.499983 L359.999987,204.499992 L359.999987,205.500001 L359.999987,206.500010 L359.999987,207.499992 L359.999987,208.500001 L359.999987,209.499983 L359.999987,210.499992 L359.999987,211.500001 L359.999987,212.500010 L359.999987,213.499992 L359.999987,214.500001 L359.999987,215.499983 L359.999987,216.499992 L359.999987,217.500001 L359.999987,218.500010 L359.999987,219.499991 L359.999987,220.500001 L359.999987,221.499982 L359.999987,222.499991 L359.999987,223.500000 L359.999987,224.500009 L359.999987,225.499991 L359.999987,226.500000 L359.999987,227.499982 L359.999987,228.499991 L359.999987,229.500000 L359.999987,230.499982 L359.999987,231.499991 L359.999987,232.500000 L359.999987,233.499982 L359.999987,234.499991 L359.999987,235.500000 L359.999987,236.499981 L359.999987,237.499990 L359.999987,238.499999 L359.999987,239.499981 L359.999987,240.499990 L359.999987,241.499999 L359.999987,242.499981 L359.999987,243.499990 L359.999987,244.499999 L359.999987,245.499981 L359.999987,246.499990 L359.999987,247.499999 L359.999987,248.499981 L359.999987,249.499990 L359.999987,250.499999 L359.999987,251.499980 L359.999987,252.499990 L359.999987,253.499999 L359.999987,254.499980 L359.999987,255.499989 L359.999987,256.499998 L359.999987,257.500007 L359.999987,258.499989 L359.999987,259.499998 L359.999987,260.500007 L359.999987,261.499989 L359.999987,262.499998 L359.999987,263.500007 L359.999987,264.499989 L359.999987,265.499998 L359.999987,266.500007 L359.999987,267.499989 L359.999987,268.499998 L359.999987,269.500007 L359.999987,270.499988 L359.999987,271.499997 L359.999987,272.500007 L359.999987,273.499988 L359.999987,274.499997 L359.999987,275.500006 L359.999987,276.499988 L359.999987,277.499997 L359.999987,278.500006 L359.999987,279.499988 L359.999987,280.499997 L359.999987,281.500006 L359.999987,282.499988 L359.999987,283.499997 L359.999987,284.500006 L359.999987,285.499988 L359.999987,286.499997 L359.999987,287.500006 L359.999987,288.499987 L359.999987,289.499996 L359.999987,290.500005 L359.999987,291.499987 L359.999987,292.499996 L359.999987,293.500005 L359.999987,294.499987 L359.999987,295.499996 L359.999987,296.500005 L359.999987,297.499987 L359.999987,298.499996 L359.999987,299.500005 L359.999987,300.499987 L359.999987,301.499996 L359.999987,302.500005 L359.999987,303.499986 L359.999987,304.499996 L359.999987,305.500005 L359.999987,306.499986 L359.999987,307.499995 L359.999987,308.500004 L359.999987,309.499986 L359.999987,310.499995 L359.999987,311.500004 L359.999987,312.499986 L359.999987,313.499995 L359.999987,314.500004 L359.999987,315.499986 L359.999987,316.499995 L359.999987,317.500004 L359.999987,318.499986 L359.999987,319.499995 L359.999987,320.500004 L359.999987,321.499985 L359.999987,322.499994 L359.999987,323.500004 L359.999987,324.499985 L359.999987,325.499994 L359.999987,326.500003 L359.999987,327.499985 L359.999987,328.499994 L359.999987,329.500003 L359.999987,330.499985 L359.999987,331.499994 L359.999987,332.500003 L359.999987,333.499985 L359.999987,334.499994 L359.999987,335.500003 L359.999987,336.499985 L359.999987,337.499994 L359.999987,338.500003 L359.999987,339.499984 L359.999987,340.499993 L359.999987,341.500002 L359.999987,342.499984 L359.999987,343.499993 L359.999987,344.500002 L359.999987,345.499984 L359.999987,346.499993 L359.999987,347.500002 L359.999987,348.499984 L359.999987,349.499993 L359.999987,350.500002 L359.999987,351.499984 L359.999987,352.499993 L359.999987,353.500002 L359.999987,354.499983 L359.999987,355.499992 L359.999987,356.500002 L359.999987,357.499983 L359.999987,358.499992 L359.999987,359.500001 L359.999987,360.499983 L359.999987,361.499992 L359.999987,362.500001 L359.999987,363.499983 L359.999987,364.499992 L359.999987,365.500001 L359.999987,366.499983 L359.999987,367.499992 L359.999987,368.500001 L359.999987,369.499983 L359.999987,370.499992 L359.999987,371.500001 L359.999987,372.499982 L359.999987,373.499991 L359.999987,374.500000 L359.999987,375.499982 L359.999987,376.499991 L359.999987,377.500000 L359.999987,378.499982 L359.999987,379.499991 L359.999987,380.500000 L359.999987,381.499982 L359.999987,382.499991 L359.999987,383.500000 L359.999987,384.499982 L359.999987,385.499991 L359.999987,386.500000 L359.999987,387.499981 L359.999987,388.499991 L359.999987,389.500000 L359.999987,390.499981 L359.999987,391.499990 L359.999987,392.499999 L359.999987,393.499981 L359.999987,394.499990 L359.999987,395.499999 L359.999987,396.499981 L359.999987,397.499990 L359.999987,398.499999 L359.999987,399.499981 L359.999987,400.499990 L359.999987,401.499999 L359.999987,402.499981 L359.999987,403.499990 L359.999987,404.499999 L359.999987,405.499980 L359.999987,406.499989 L359.999987,407.499999 L359.999987,408.499980 L359.999987,409.499989 L359.999987,410.499998 L359.999987,411.499980 L359.999987,412.499989 L359.999987,413.499998 L359.999987,414.499980 L359.999987,415.499989 L359.999987,416.499998 L359.999987,417.499980 L359.999987,418.499989 L359.999987,419.499998 L359.999987,420.499979 L359.999987,421.499989 L359.999987,422.499998 L359.999987,423.499979 L359.999987,424.499988 L359.999987,425.499997 L359.999987,426.499979 L359.999987,427.499988 L359.999987,428.499997 L359.499992,429.000002 L358.999997,429.499979 L358.999997,430.499988 L358.999997,431.499997 L358.999997,432.499979 L358.999997,433.499988 L358.999997,434.499997 L358.500003,435.000001 L357.999986,435.499979 L357.999986,436.499988 L357.999986,437.499997 L357.499991,438.000001 L356.999997,438.499978 L356.999997,439.499987 L356.500002,439.999992 L355.999985,440.499997 L355.999985,441.499978 L355.499991,441.999983 L354.999996,442.499987 L354.500001,442.999992 L353.999985,443.499996 L353.999985,444.499978 L353.499990,444.999983 L352.999995,445.499987 L352.500001,445.999992 L351.999984,446.499996 L351.499989,447.000001 L350.999995,447.499978 L350.500000,447.999982 L350.000005,448.499987 L349.499989,448.999991 L348.499999,448.999991 L348.000005,449.499996 L347.499988,450.000001 L346.999993,450.499978 L346.499999,450.999982 L345.499987,450.999982 L344.999993,451.499987 L344.499998,451.999991 L343.499987,451.999991 L342.999992,452.499996 L342.499997,453.000000 L341.499986,453.000000 L340.499997,453.000000 L340.000002,453.499978 L339.499986,453.999982 L338.499996,453.999982 L337.499985,453.999982 L336.499995,453.999982 L335.500006,453.999982 L334.999990,454.499987 L334.499995,454.999991 Z " style="fill: rgba(255, 255, 255, 1.000000); " fill="#feffff" stroke="none" />
</g></svg>