<svg width="367px" height="459px" xmlns="http://www.w3.org/2000/svg" xmlns:xlink="http://www.w3.org/1999/xlink">
<g style="">  <path d="M279.499988,134.999992 L278.499998,134.999992 L277.499987,134.999992 L276.499998,134.999992 L275.499986,134.999992 L274.499997,134.999992 L273.499986,134.999992 L272.499996,134.999992 L271.500007,134.999992 L270.499996,134.999992 L269.500006,134.999992 L268.499995,134.999992 L267.500006,134.999992 L266.499994,134.999992 L265.500005,134.999992 L264.499994,134.999992 L263.500004,134.999992 L262.499993,134.999992 L261.500004,134.999992 L260.499992,134.999992 L259.500003,134.999992 L258.499992,134.999992 L257.500002,134.999992 L256.499991,134.999992 L255.500002,134.999992 L254.499990,134.999992 L253.500001,134.999992 L252.499990,134.999992 L251.500000,134.999992 L250.499989,134.999992 L249.500000,134.999992 L248.499988,134.999992 L247.499999,134.999992 L246.499988,134.999992 L245.499998,134.999992 L244.499987,134.999992 L243.499998,134.999992 L242.499987,134.999992 L241.499997,134.999992 L240.499986,134.999992 L239.499996,134.999992 L238.500007,134.999992 L237.499996,134.999992 L236.500006,134.999992 L235.499995,134.999992 L234.500006,134.999992 L233.499995,134.999992 L232.500005,134.999992 L231.499994,134.999992 L230.500004,134.999992 L229.499993,134.999992 L228.500004,134.999992 L227.499993,134.999992 L226.500003,134.999992 L225.499992,134.999992 L224.500003,134.999992 L223.499991,134.999992 L222.500002,134.999992 L221.499991,134.999992 L220.500001,134.999992 L219.499990,134.999992 L218.500001,134.999992 L217.499989,134.999992 L216.500000,134.999992 L215.499989,134.999992 L214.499999,134.999992 L213.499988,134.999992 L212.499999,134.999992 L211.499987,134.999992 L210.499998,134.999992 L209.499987,134.999992 L208.499997,134.999992 L207.500008,134.999992 L206.499997,134.999992 L205.500007,134.999992 L204.499996,134.999992 L203.500007,134.999992 L202.499995,134.999992 L201.500006,134.999992 L200.499995,134.999992 L199.500005,134.999992 L198.499994,134.999992 L197.500005,134.999992 L196.499993,134.999992 L195.500004,134.999992 L194.499993,134.999992 L193.500003,134.999992 L192.499992,134.999992 L191.500003,134.999992 L190.499991,134.999992 L189.500002,134.999992 L188.499991,134.999992 L187.500001,134.999992 L186.499990,134.999992 L185.500001,134.999992 L184.499989,134.999992 L183.500000,134.999992 L182.500000,134.999992 L181.499999,134.999992 L180.499999,134.999992 L179.499999,134.999992 L178.499998,134.999992 L177.499998,134.999992 L176.499998,134.999992 L175.499997,134.999992 L174.499997,134.999992 L173.499997,134.999992 L172.499996,134.999992 L171.499996,134.999992 L170.499996,134.999992 L169.499995,134.999992 L168.499995,134.999992 L167.499995,134.999992 L166.499994,134.999992 L165.499994,134.999992 L164.499994,134.999992 L163.499993,134.999992 L162.499993,134.999992 L161.499993,134.999992 L160.499992,134.999992 L159.500003,134.999992 L158.500003,134.999992 L157.500002,134.999992 L156.500002,134.999992 L155.500002,134.999992 L154.500001,134.999992 L153.500001,134.999992 L152.500001,134.999992 L151.500000,134.999992 L150.500000,134.999992 L149.500000,134.999992 L148.499999,134.999992 L147.499999,134.999992 L146.499999,134.999992 L145.499998,134.999992 L144.499998,134.999992 L143.499998,134.999992 L142.499997,134.999992 L141.499997,134.999992 L140.499997,134.999992 L139.499997,134.999992 L138.499996,134.999992 L137.499996,134.999992 L136.499996,134.999992 L135.499995,134.999992 L134.499995,134.999992 L133.499995,134.999992 L132.499994,134.999992 L131.499994,134.999992 L130.499994,134.999992 L129.499993,134.999992 L128.499993,134.999992 L127.500004,134.999992 L126.500003,134.999992 L125.500003,134.999992 L124.500003,134.999992 L123.500002,134.999992 L122.500002,134.999992 L121.500002,134.999992 L120.500001,134.999992 L119.500001,134.999992 L118.500001,134.999992 L117.500000,134.999992 L116.500000,134.999992 L115.500000,134.999992 L114.499999,134.999992 L113.499999,134.999992 L112.499999,134.999992 L111.499998,134.999992 L110.499998,134.999992 L109.499998,134.999992 L108.499997,134.999992 L107.499997,134.999992 L106.499997,134.999992 L105.499996,134.999992 L104.499996,134.999992 L103.499996,134.999992 L102.499995,134.999992 L101.499995,134.999992 L100.499995,134.999992 L99.499994,134.999992 L98.499994,134.999992 L97.499994,134.999992 L96.499993,134.999992 L95.500004,134.999992 L94.500004,134.999992 L93.500003,134.999992 L92.500003,134.999992 L91.499997,134.999992 L90.499997,134.999992 L89.499997,134.999992 L88.499996,134.999992 L87.500001,134.999992 L86.500001,134.999992 L86.000001,134.500015 L86.000001,133.500006 L86.000001,132.499997 L86.500001,131.999992 L87.000001,131.499988 L87.000001,130.499979 L87.000001,129.499997 L87.000001,128.500015 L87.000001,127.500006 L87.000001,126.499997 L87.000001,125.499988 L87.500001,124.999983 L87.999996,124.499979 L87.999996,123.499997 L87.999996,122.500015 L87.999996,121.500006 L88.499996,121.000002 L88.999996,120.499997 L88.999996,119.499988 L88.999996,118.499979 L88.999996,117.499998 L89.499997,116.999993 L89.999997,116.500016 L89.999997,115.500007 L90.499997,115.000002 L90.999997,114.499998 L90.999997,113.499989 L90.999997,112.500007 L91.499997,112.000002 L91.999997,111.499998 L91.999997,110.499989 L92.500003,110.000012 L92.999998,109.500007 L93.500003,109.000003 L93.999998,108.499998 L93.999998,107.499989 L94.500004,106.999985 L94.999998,106.500007 L95.500004,106.000003 L95.999999,105.499998 L95.999999,104.499989 L96.499993,104.000012 L96.999999,103.500008 L97.499994,103.000003 L97.999999,102.499998 L98.499994,101.999994 L99.000000,101.499989 L99.499994,100.999985 L100.000000,100.500008 L100.499995,100.000003 L101.000000,99.499999 L101.499995,98.999994 L102.499995,98.999994 L103.000001,98.499990 L103.499996,98.000012 L104.000001,97.500008 L104.499996,97.000003 L105.499996,97.000003 L106.000002,96.499999 L106.499997,95.999994 L107.499997,95.999994 L108.000003,95.499990 L108.499997,94.999985 L109.499998,94.999985 L110.000003,94.499981 L110.499998,94.000004 L111.499998,94.000004 L112.499999,94.000004 L112.999993,93.499999 L113.499999,92.999994 L114.499999,92.999994 L115.500000,92.999994 L115.999994,92.499990 L116.500000,92.000013 L117.500000,92.000013 L118.500001,92.000013 L119.500001,92.000013 L119.999996,91.500008 L120.500001,91.000004 L121.500002,91.000004 L121.999996,90.499999 L122.500002,89.999995 L123.500002,89.999995 L124.500003,89.999995 L124.999997,89.499990 L125.500003,88.999986 L126.500003,88.999986 L126.999998,88.499981 L127.500004,88.000004 L127.999998,87.499999 L128.499993,86.999995 L129.499993,86.999995 L129.999999,86.499990 L130.499994,86.000013 L130.999999,85.500009 L131.499994,85.000004 L132.000000,84.500000 L132.499994,83.999995 L133.000000,83.499990 L133.000000,82.499981 L133.499995,82.000004 L134.000000,81.500000 L134.499995,80.999995 L135.000001,80.499991 L135.000001,79.500009 L135.000001,78.500000 L135.499995,77.999995 L136.000001,77.499991 L136.000001,76.499982 L136.000001,75.500000 L136.000001,74.499991 L136.000001,73.500009 L136.000001,72.500000 L136.000001,71.499991 L136.000001,70.499982 L136.000001,69.500000 L136.000001,68.499991 L136.000001,67.500010 L136.000001,66.500001 L136.000001,65.499992 L136.000001,64.499982 L136.000001,63.500001 L136.000001,62.499992 L136.000001,61.500010 L136.000001,60.500001 L136.000001,59.499992 L136.000001,58.499983 L136.000001,57.500001 L136.000001,56.499992 L136.000001,55.500010 L136.000001,54.500001 L136.000001,53.499992 L136.000001,52.500011 L136.000001,51.500001 L136.000001,50.499992 L136.000001,49.500011 L136.499996,49.000006 L137.000001,48.500002 L137.000001,47.499993 L137.000001,46.499984 L137.000001,45.500002 L137.000001,44.499993 L137.000001,43.500011 L137.000001,42.500002 L137.000001,41.499993 L137.499996,40.999988 L138.000001,40.499984 L138.000001,39.500002 L138.000001,38.499993 L138.000001,37.500011 L138.499996,37.000007 L139.000002,36.500002 L139.000002,35.499993 L139.499997,34.999989 L140.000002,34.499984 L140.000002,33.500003 L140.000002,32.499994 L140.499997,31.999989 L141.000002,31.500012 L141.000002,30.500003 L141.499997,29.999998 L142.000003,29.499994 L142.000003,28.500012 L142.499997,28.000007 L143.000003,27.500003 L143.499998,26.999998 L144.000003,26.499994 L144.000003,25.500012 L144.499998,25.000008 L144.999993,24.500003 L145.499998,23.999999 L145.999993,23.499994 L145.999993,22.499985 L146.499999,22.000008 L146.999994,21.500003 L147.499999,20.999999 L147.999994,20.499994 L148.499999,19.999990 L148.999994,19.500013 L149.500000,19.000008 L149.999994,18.500003 L150.500000,17.999999 L150.999995,17.499994 L151.500000,16.999990 L151.999995,16.499985 L152.500001,16.000008 L152.999995,15.500004 L153.500001,14.999999 L154.500001,14.999999 L154.999996,14.499995 L155.500002,13.999990 L155.999996,13.500013 L156.500002,13.000008 L156.999997,12.500004 L157.500002,11.999999 L158.500003,11.999999 L158.999997,11.499995 L159.500003,10.999990 L160.499992,10.999990 L160.999998,10.499986 L161.499993,10.000009 L162.499993,10.000009 L162.999999,9.500004 L163.499993,8.999999 L164.499994,8.999999 L164.999999,8.499995 L165.499994,7.999990 L166.499994,7.999990 L167.499995,7.999990 L168.000000,7.500013 L168.499995,7.000009 L169.499995,7.000009 L170.499996,7.000009 L171.499996,7.000009 L172.000002,6.500004 L172.499996,6.000000 L173.499997,6.000000 L174.499997,6.000000 L175.499997,6.000000 L176.499998,6.000000 L177.499998,6.000000 L177.999993,5.499995 L178.499998,4.999991 L179.499999,4.999991 L180.499999,4.999991 L181.499999,4.999991 L182.500000,4.999991 L183.500000,4.999991 L184.499989,4.999991 L185.500001,4.999991 L186.499990,4.999991 L187.500001,4.999991 L187.999996,5.499995 L188.499991,6.000000 L189.500002,6.000000 L190.499991,6.000000 L191.500003,6.000000 L192.499992,6.000000 L193.500003,6.000000 L193.999998,6.500004 L194.499993,7.000009 L195.500004,7.000009 L196.499993,7.000009 L197.500005,7.000009 L197.999999,7.500013 L198.499994,7.999990 L199.500005,7.999990 L200.499995,7.999990 L200.999989,8.499995 L201.500006,8.999999 L202.499995,8.999999 L202.999990,9.500004 L203.500007,10.000009 L204.499996,10.000009 L204.999991,10.499986 L205.500007,10.999990 L206.499997,10.999990 L206.999991,11.499995 L207.500008,11.999999 L208.000003,12.500004 L208.499997,13.000008 L209.499987,13.000008 L210.000003,13.500013 L210.499998,13.999990 L210.999993,14.499995 L211.499987,14.999999 L212.499999,14.999999 L212.999993,15.500004 L213.499988,16.000008 L214.000005,16.499985 L214.499999,16.999990 L214.999994,17.499994 L215.499989,17.999999 L216.000005,18.500003 L216.500000,19.000008 L216.999995,19.500013 L217.499989,19.999990 L218.000006,20.499994 L218.500001,20.999999 L218.999995,21.500003 L219.499990,22.000008 L220.000006,22.499985 L220.000006,23.499994 L220.500001,23.999999 L220.999996,24.500003 L221.499991,25.000008 L222.000007,25.500012 L222.000007,26.499994 L222.500002,26.999998 L222.999997,27.500003 L223.499991,28.000007 L223.999986,28.500012 L223.999986,29.499994 L224.500003,29.999998 L224.999997,30.500003 L224.999997,31.500012 L225.499992,31.999989 L225.999987,32.499994 L225.999987,33.500003 L225.999987,34.499984 L226.500003,34.999989 L226.999998,35.499993 L226.999998,36.500002 L227.499993,37.000007 L227.999987,37.500011 L227.999987,38.499993 L227.999987,39.500002 L227.999987,40.499984 L228.500004,40.999988 L228.999999,41.499993 L228.999999,42.500002 L228.999999,43.500011 L228.999999,44.499993 L228.999999,45.500002 L228.999999,46.499984 L228.999999,47.499993 L228.999999,48.500002 L229.499993,49.000006 L229.999988,49.500011 L229.999988,50.499992 L229.999988,51.500001 L229.999988,52.500011 L229.999988,53.499992 L229.999988,54.500001 L229.999988,55.500010 L229.999988,56.499992 L229.999988,57.500001 L229.999988,58.499983 L229.999988,59.499992 L229.999988,60.500001 L229.999988,61.500010 L229.999988,62.499992 L229.999988,63.500001 L229.999988,64.499982 L229.999988,65.499992 L229.999988,66.500001 L229.999988,67.500010 L229.999988,68.499991 L229.999988,69.500000 L229.999988,70.499982 L229.999988,71.499991 L229.999988,72.500000 L229.999988,73.500009 L229.999988,74.499991 L229.999988,75.500000 L229.999988,76.499982 L229.999988,77.499991 L230.500004,77.999995 L230.999999,78.500000 L230.999999,79.500009 L230.999999,80.499991 L231.499994,80.999995 L231.999989,81.500000 L231.999989,82.499981 L232.500005,82.999986 L233.000000,83.499990 L233.499995,83.999995 L233.999989,84.500000 L234.500006,85.000004 L235.000000,85.500009 L235.499995,86.000013 L235.999990,86.499990 L236.500006,86.999995 L237.499996,86.999995 L237.999991,87.499999 L238.500007,88.000004 L239.000002,88.499981 L239.499996,88.999986 L240.499986,88.999986 L241.000002,89.499990 L241.499997,89.999995 L242.499987,89.999995 L243.000003,90.499999 L243.499998,91.000004 L244.499987,91.000004 L245.499998,91.000004 L245.999993,91.500008 L246.499988,92.000013 L247.499999,92.000013 L248.499988,92.000013 L249.000005,92.499990 L249.500000,92.999994 L250.499989,92.999994 L251.500000,92.999994 L252.499990,92.999994 L253.000006,93.499999 L253.500001,94.000004 L254.499990,94.000004 L255.500002,94.000004 L255.999996,94.499981 L256.499991,94.999985 L257.500002,94.999985 L257.999997,95.499990 L258.499992,95.999994 L259.500003,95.999994 L259.999998,96.499999 L260.499992,97.000003 L261.500004,97.000003 L261.999998,97.500008 L262.499993,98.000012 L262.999988,98.499990 L263.500004,98.999994 L264.499994,98.999994 L264.999988,99.499999 L265.500005,100.000003 L266.000000,100.500008 L266.499994,100.999985 L266.999989,101.499989 L267.500006,101.999994 L268.000000,102.499998 L268.499995,103.000003 L268.999990,103.500008 L269.500006,104.000012 L270.000001,104.499989 L270.499996,104.999994 L270.999990,105.499998 L270.999990,106.500007 L271.500007,106.999985 L272.000002,107.499989 L272.499996,107.999994 L272.999991,108.499998 L272.999991,109.500007 L273.499986,110.000012 L274.000002,110.499989 L274.000002,111.499998 L274.499997,112.000002 L274.999992,112.500007 L274.999992,113.499989 L274.999992,114.499998 L275.499986,115.000002 L276.000003,115.500007 L276.000003,116.500016 L276.499998,116.999993 L276.999992,117.499998 L276.999992,118.499979 L276.999992,119.499988 L276.999992,120.499997 L277.499987,121.000002 L278.000004,121.500006 L278.000004,122.500015 L278.000004,123.499997 L278.000004,124.499979 L278.499998,124.999983 L278.999993,125.499988 L278.999993,126.499997 L278.999993,127.500006 L278.999993,128.500015 L278.999993,129.499997 L278.999993,130.499979 L278.999993,131.499988 L279.499988,131.999992 L280.000004,132.499997 L280.000004,133.500006 L280.000004,134.500015 L279.499988,134.999992 Z M187.000007,64.499982 L187.500001,64.000005 L188.499991,64.000005 L189.000007,63.500001 L189.500002,62.999996 L189.999997,62.499992 L190.499991,62.000015 L191.500003,62.000015 L191.999997,61.500010 L192.499992,61.000005 L192.999987,60.500001 L192.999987,59.499992 L193.500003,58.999987 L193.999998,58.499983 L194.499993,58.000006 L194.999987,57.500001 L194.999987,56.499992 L194.999987,55.500010 L195.500004,55.000006 L195.999999,54.500001 L195.999999,53.499992 L195.999999,52.500011 L195.999999,51.500001 L195.999999,50.499992 L195.999999,49.500011 L195.500004,49.000006 L194.999987,48.500002 L194.999987,47.499993 L194.499993,46.999988 L193.999998,46.499984 L193.999998,45.500002 L193.500003,44.999997 L192.999987,44.499993 L192.499992,43.999988 L191.999997,43.500011 L191.500003,43.000007 L191.000008,42.500002 L190.499991,41.999997 L189.999997,41.499993 L189.500002,40.999988 L188.499991,40.999988 L187.999996,40.499984 L187.500001,40.000007 L186.499990,40.000007 L185.999995,39.500002 L185.500001,38.999998 L184.499989,38.999998 L183.500000,38.999998 L182.500000,38.999998 L181.499999,38.999998 L180.499999,38.999998 L179.999993,39.500002 L179.499999,40.000007 L178.499998,40.000007 L177.999993,40.499984 L177.499998,40.999988 L176.499998,40.999988 L175.999992,41.499993 L175.499997,41.999997 L175.000003,42.500002 L174.499997,43.000007 L174.000002,43.500011 L173.499997,43.999988 L173.000002,44.499993 L172.499996,44.999997 L172.000002,45.500002 L172.000002,46.499984 L171.499996,46.999988 L171.000001,47.499993 L171.000001,48.500002 L170.499996,49.000006 L170.000001,49.500011 L170.000001,50.499992 L170.000001,51.500001 L170.000001,52.500011 L170.000001,53.499992 L170.000001,54.500001 L170.499996,55.000006 L171.000001,55.500010 L171.000001,56.499992 L171.000001,57.500001 L171.499996,58.000006 L172.000002,58.499983 L172.499996,58.999987 L173.000002,59.499992 L173.000002,60.500001 L173.499997,61.000005 L174.000002,61.500010 L174.499997,62.000015 L175.499997,62.000015 L175.999992,62.499992 L176.499998,62.999996 L176.999992,63.500001 L177.499998,64.000005 L178.499998,64.000005 L178.999993,64.499982 L179.499999,64.999987 L180.499999,64.999987 L181.499999,64.999987 L182.500000,64.999987 L183.500000,64.999987 L184.499989,64.999987 L185.500001,64.999987 L186.499990,64.999987 L187.000007,64.499982 Z " style="fill: rgba(255, 255, 255, 1.000000); " fill="#feffff" stroke="none" />
</g></svg>